<svg width="38" height="39" viewBox="0 0 38 39" fill="none" xmlns="http://www.w3.org/2000/svg">
<g clip-path="url(#clip0_621_4251)">
<path d="M0 38.1939L2.68577 28.3913C1.02531 25.514 0.15425 22.2556 0.163324 18.9245C0.163324 8.48652 8.65615 0 19.0816 0C24.1447 0 28.8992 1.9696 32.4651 5.54574C36.0401 9.12187 38.009 13.878 38 18.9336C38 29.3715 29.5071 37.858 19.0726 37.858H19.0635C15.8968 37.858 12.7846 37.0593 10.0172 35.5526L0 38.1939ZM10.4981 32.1308L11.0697 32.4757C13.4833 33.9098 16.2507 34.6631 19.0726 34.6722H19.0816C27.7469 34.6722 34.8061 27.6198 34.8061 18.9426C34.8061 14.7402 33.1728 10.7919 30.2058 7.81486C27.2388 4.83777 23.2827 3.204 19.0816 3.204C10.4164 3.19492 3.35721 10.2474 3.35721 18.9245C3.35721 21.8925 4.1829 24.7879 5.7617 27.293L6.13371 27.8921L4.54584 33.6919L10.4981 32.1308Z" fill="white"/>
<path d="M0.664062 37.5313L3.25909 28.0645C1.65308 25.2962 0.809239 22.1466 0.809239 18.9336C0.818313 8.85866 9.01172 0.662598 19.0833 0.662598C23.974 0.662598 28.5561 2.56866 32.0041 6.01772C35.452 9.46679 37.3484 14.0595 37.3484 18.9426C37.3484 29.0175 29.1459 37.2136 19.0833 37.2136H19.0743C16.0165 37.2136 13.0131 36.4421 10.3455 34.9899L0.664062 37.5313Z" fill="url(#paint0_linear_621_4251)"/>
<path d="M0 38.1939L2.68577 28.3913C1.02531 25.514 0.15425 22.2556 0.163324 18.9245C0.163324 8.48652 8.65615 0 19.0816 0C24.1447 0 28.8992 1.9696 32.4651 5.54574C36.0401 9.12187 38.009 13.878 38 18.9336C38 29.3715 29.5071 37.858 19.0726 37.858H19.0635C15.8968 37.858 12.7846 37.0593 10.0172 35.5526L0 38.1939ZM10.4981 32.1308L11.0697 32.4757C13.4833 33.9098 16.2507 34.6631 19.0726 34.6722H19.0816C27.7469 34.6722 34.8061 27.6198 34.8061 18.9426C34.8061 14.7402 33.1728 10.7919 30.2058 7.81486C27.2388 4.83777 23.2827 3.204 19.0816 3.204C10.4164 3.19492 3.35721 10.2474 3.35721 18.9245C3.35721 21.8925 4.1829 24.7879 5.7617 27.293L6.13371 27.8921L4.54584 33.6919L10.4981 32.1308Z" fill="url(#paint1_linear_621_4251)"/>
<path fill-rule="evenodd" clip-rule="evenodd" d="M14.3542 11.01C14.0004 10.2204 13.6283 10.2022 13.2926 10.1932C13.0204 10.1841 12.7028 10.1841 12.3853 10.1841C12.0677 10.1841 11.5596 10.3021 11.124 10.7741C10.6885 11.246 9.47266 12.3897 9.47266 14.7223C9.47266 17.0459 11.1694 19.2969 11.4053 19.6146C11.6412 19.9322 14.6809 24.8608 19.4808 26.7578C23.4731 28.3371 24.2897 28.0194 25.1517 27.9377C26.0137 27.856 27.9464 26.7941 28.3456 25.6867C28.7358 24.5794 28.7358 23.6354 28.6178 23.4358C28.4999 23.2361 28.1823 23.1181 27.7105 22.8821C27.2386 22.6461 24.9158 21.5025 24.4803 21.3391C24.0448 21.1848 23.7272 21.1031 23.4187 21.5751C23.1011 22.0471 22.1938 23.109 21.9216 23.4267C21.6493 23.7444 21.3681 23.7807 20.8962 23.5447C20.4244 23.3087 18.9001 22.8095 17.0944 21.1939C15.688 19.9413 14.7353 18.3892 14.4631 17.9173C14.1909 17.4453 14.4359 17.1911 14.6718 16.9551C14.8805 16.7464 15.1436 16.4015 15.3795 16.1292C15.6154 15.8569 15.6971 15.6572 15.8514 15.3395C16.0056 15.0219 15.933 14.7496 15.8151 14.5136C15.6971 14.2867 14.7716 11.9449 14.3542 11.01Z" fill="white"/>
</g>
<defs>
<linearGradient id="paint0_linear_621_4251" x1="19.0053" y1="37.5294" x2="19.0053" y2="0.661308" gradientUnits="userSpaceOnUse">
<stop stop-color="#20B038"/>
<stop offset="1" stop-color="#60D66A"/>
</linearGradient>
<linearGradient id="paint1_linear_621_4251" x1="19.0037" y1="38.1903" x2="19.0037" y2="0" gradientUnits="userSpaceOnUse">
<stop stop-color="#F9F9F9"/>
<stop offset="1" stop-color="white"/>
</linearGradient>
<clipPath id="clip0_621_4251">
<rect width="38" height="38.1939" fill="white"/>
</clipPath>
</defs>
</svg>
