<svg width="12" height="8" viewBox="0 0 12 8" fill="none" xmlns="http://www.w3.org/2000/svg">
<path d="M11.8575 3.85047C10.8281 1.5114 8.51338 0 5.96174 0C3.4101 0 1.09565 1.5114 0.0659679 3.85047L0 4L0.0659679 4.14953C1.09565 6.4886 3.40981 8 5.96174 8C8.51338 8 10.8281 6.48889 11.8575 4.14953L11.9235 4L11.8575 3.85047ZM5.96174 7.25764C3.7587 7.25764 1.75592 5.98461 0.813311 4C1.45364 2.65191 2.5836 1.63395 3.93257 1.11794C3.62354 1.38063 3.36554 1.7008 3.17672 2.06406C3.30162 1.98168 3.45027 1.93301 3.61064 1.93301C4.04632 1.93301 4.39962 2.2863 4.39962 2.72198C4.39962 3.15766 4.04632 3.51154 3.61064 3.51154C3.26673 3.51154 2.97735 3.28989 2.86916 2.98351C2.83984 3.15532 2.82137 3.33123 2.82137 3.51096C2.82137 5.24547 4.22752 6.65132 5.96174 6.65132C7.69625 6.65132 9.1021 5.24547 9.1021 3.51096C9.1021 2.55222 8.67082 1.69523 7.99355 1.11911C9.34164 1.63512 10.4701 2.65308 11.1105 4C10.1679 5.9849 8.16477 7.25764 5.96174 7.25764Z" fill="#A2A2A2"/>
</svg>
