<svg width="20" height="25" viewBox="0 0 20 25" fill="none" xmlns="http://www.w3.org/2000/svg">
<path d="M16.6158 0.121582L20.1268 3.64364L20.1133 3.65659L16.6457 3.65921L16.6133 0.124198L16.6158 0.121582Z" fill="#F1F1F1"/>
<path d="M7.18941 5.68068C7.18941 6.34894 6.81611 6.66458 6.24314 6.66006C6.16473 6.66006 6.07717 6.66006 6.02344 6.64776V4.81799C6.07717 4.80568 6.1686 4.79272 6.30989 4.79272C6.85302 4.79278 7.19333 5.09998 7.18941 5.68068Z" fill="#F1F1F1"/>
<path d="M4.36057 5.19543C4.36057 5.48189 4.15312 5.65237 3.81744 5.65237C3.72602 5.65237 3.65926 5.64785 3.60547 5.63555V4.80977C3.65148 4.79746 3.73832 4.78516 3.86666 4.78516C4.1823 4.78516 4.36057 4.9381 4.36057 5.19543Z" fill="#F1F1F1"/>
<path d="M2.25134 2.5813H13.1402V8.86834H2.25134H2.22477H-0.0820312V2.5813H2.22471H2.25134Z" fill="#F1F1F1"/>
<path d="M11.4977 12.1144C11.5054 12.7671 11.088 14.0406 11.088 14.0406C10.944 13.889 10.6562 13.0775 10.6562 12.3269C10.6562 11.5764 10.8987 11.3716 11.088 11.3716C11.2778 11.3716 11.4898 11.4624 11.4977 12.1144Z" fill="#164B60"/>
<path d="M16.0383 17.8065C16.0383 18.6686 14.4762 18.3172 13.5156 17.4027C13.5156 17.4027 16.0383 16.9451 16.0383 17.8065Z" fill="#164B60"/>
<path d="M6.97676 20.6453C6.20352 20.1825 8.59973 18.7572 9.03206 18.7119C9.03206 18.7119 7.78631 21.1294 6.97676 20.6453Z" fill="#164B60"/>
<path d="M11.4514 15.4587C11.8909 16.2774 12.7632 17.2405 12.7632 17.2405C12.7632 17.2405 12.4294 17.2782 11.6537 17.468C10.8778 17.6579 10.4883 17.855 10.4883 17.855C10.4883 17.855 10.4883 17.855 10.8065 17.142C11.1254 16.429 11.4514 15.4587 11.4514 15.4587Z" fill="#164B60"/>
<path d="M20.1389 3.65663V24.2296H2.25V8.86841H13.1389V2.58137H2.25V0.118408H16.6124L16.6149 0.121618L16.6124 0.124174L16.6448 3.65919L20.1124 3.65657L20.126 3.64361L20.1389 3.65663Z" fill="#164B60"/>
<path d="M9.02956 18.7118C8.59729 18.7572 6.20102 20.1824 6.97426 20.6452C7.78381 21.1294 9.02956 18.7118 9.02956 18.7118ZM13.516 17.4025C14.4765 18.3171 16.0386 18.6684 16.0386 17.8064C16.0386 16.9449 13.516 17.4025 13.516 17.4025ZM12.7603 17.2405C12.7603 17.2405 11.8879 16.2774 11.4484 15.4587C11.4484 15.4587 11.1224 16.429 10.8035 17.1419C10.4853 17.8549 10.4853 17.8549 10.4853 17.8549C10.4853 17.8549 10.8748 17.6578 11.6506 17.4679C12.4264 17.2781 12.7603 17.2405 12.7603 17.2405ZM11.0842 14.0406C11.0842 14.0406 11.5015 12.767 11.4939 12.1143C11.486 11.4623 11.2741 11.3715 11.0842 11.3715C10.8949 11.3715 10.6525 11.5763 10.6525 12.3268C10.6525 13.0774 10.9402 13.889 11.0842 14.0406ZM11.6079 15.0264C12.0325 15.9442 13.2004 17.1264 13.2004 17.1264C13.2004 17.1264 13.579 17.0279 15.141 16.9903C16.7036 16.9527 16.7718 17.8316 16.7788 17.9074C16.7866 17.9839 16.8476 18.6814 15.6038 18.7267C14.3606 18.7721 13.0708 17.4758 13.0708 17.4758C13.0708 17.4758 12.5406 17.5593 12.1011 17.6651C11.6617 17.7713 10.2507 18.1583 10.2507 18.1583C10.2507 18.1583 9.83328 18.9166 8.90835 20.1293C7.98282 21.3426 6.94644 21.2519 6.65083 20.85C6.30731 20.3833 6.57242 19.9174 7.22445 19.3106C7.87648 18.704 9.38086 18.201 9.38086 18.201C9.38086 18.201 9.6842 17.6553 10.1288 16.6137C10.5734 15.5722 10.9099 14.526 10.9099 14.526C10.9099 14.526 10.4697 13.5266 10.3841 12.6762C10.2883 11.728 10.3945 11.0909 11.1224 11.0831C11.8504 11.0753 12.0778 11.6217 12.1005 12.5692C12.1231 13.5176 11.6079 15.0264 11.6079 15.0264Z" fill="white"/>
<path d="M9.93784 4.86238V4.32739H8.27344V7.12121H8.86787V5.99179H9.8784V5.51625H8.86787V4.86238H9.93784Z" fill="#164B60"/>
<path d="M7.38993 4.60619C7.1203 4.40266 6.76292 4.30737 6.23145 4.30737C5.91194 4.30737 5.60105 4.32812 5.36328 4.36569V7.11254C5.54161 7.13329 5.76672 7.15397 6.09467 7.15397C6.64237 7.15397 7.09753 7.03794 7.39177 6.79298C7.6614 6.56484 7.85982 6.19534 7.85982 5.66C7.85982 5.16686 7.68096 4.82203 7.38993 4.60619ZM6.21106 6.66018C6.13265 6.66018 6.0766 6.66018 5.95771 6.64788V4.81811C6.0766 4.8058 6.13651 4.79284 6.27787 4.79284C6.821 4.79284 7.16125 5.10004 7.15733 5.6808C7.15733 6.34906 6.78397 6.6647 6.21106 6.66018Z" fill="#164B60"/>
<path d="M4.68815 4.53281C4.50149 4.38308 4.19721 4.30859 3.80696 4.30859C3.4213 4.30859 3.10411 4.33386 2.92578 4.36691V7.1225H3.57965V6.12594C3.6391 6.13438 3.72523 6.1389 3.80827 6.1389C4.18157 6.1389 4.50744 6.04748 4.72334 5.844C4.88924 5.68654 4.98376 5.45382 4.98376 5.18032C4.98376 4.90617 4.86636 4.67411 4.68815 4.53281ZM3.80429 5.65349C3.71293 5.65349 3.6391 5.64897 3.57965 5.63667V4.81089C3.6391 4.79858 3.72523 4.78628 3.85351 4.78628C4.16921 4.78628 4.34742 4.93922 4.34742 5.19655C4.34742 5.48301 4.14002 5.65349 3.80429 5.65349Z" fill="#164B60"/>
</svg>
