<svg width="28" height="28" viewBox="0 0 28 28" fill="none" xmlns="http://www.w3.org/2000/svg">
<path fill-rule="evenodd" clip-rule="evenodd" d="M5.11872 24.1516V12.5016L14.1581 6.14175C14.2108 6.10384 14.2742 6.08345 14.3392 6.08345C14.4041 6.08345 14.4675 6.10384 14.5203 6.14175L23.5593 12.5016V24.1516C23.5587 24.4758 23.4297 24.7866 23.2004 25.0159C22.9712 25.2452 22.6604 25.3743 22.3362 25.375H17.7363C17.6529 25.3748 17.5729 25.3416 17.5139 25.2826C17.4549 25.2236 17.4217 25.1436 17.4215 25.0602V17.8386C17.421 17.5144 17.2919 17.2035 17.0627 16.9742C16.8334 16.7449 16.5227 16.6158 16.1984 16.6152H12.4796C12.1554 16.6158 11.8446 16.7449 11.6153 16.9742C11.3861 17.2035 11.2571 17.5144 11.2565 17.8386V25.0602C11.2564 25.1436 11.2232 25.2236 11.1642 25.2826C11.1052 25.3416 11.0252 25.3748 10.9417 25.375H6.34183C6.01761 25.3743 5.70686 25.2452 5.47762 25.0159C5.24839 24.7866 5.11934 24.4758 5.11872 24.1516ZM3.64961 12.5099L14.1581 5.11608C14.2108 5.07817 14.2742 5.05778 14.3392 5.05778C14.4041 5.05778 14.4675 5.07817 14.5203 5.11608L25.0284 12.5099C25.1579 12.6011 25.3041 12.6658 25.4586 12.7004C25.6132 12.735 25.773 12.7388 25.929 12.7117C26.085 12.6845 26.2341 12.6269 26.3679 12.5421C26.5016 12.4573 26.6173 12.3471 26.7084 12.2175C26.7995 12.088 26.8643 11.9418 26.8989 11.7873C26.9335 11.6328 26.9373 11.473 26.9102 11.317C26.883 11.161 26.8254 11.0119 26.7406 10.8781C26.6558 10.7444 26.5455 10.6286 26.416 10.5375L15.0328 2.52821C14.8298 2.38514 14.5874 2.30835 14.339 2.30835C14.0906 2.30835 13.8483 2.38514 13.6452 2.52821L2.26201 10.5375C2.1325 10.6286 2.0222 10.7444 1.93742 10.8781C1.85263 11.0119 1.79502 11.161 1.76786 11.317C1.71303 11.632 1.78559 11.956 1.9696 12.2175C2.15361 12.4791 2.43398 12.6568 2.74904 12.7117C3.06411 12.7665 3.38805 12.694 3.64961 12.5099ZM18.9493 4.2575L22.6996 6.89654V2.48398C22.6992 2.28943 22.6217 2.10297 22.4842 1.9654C22.3466 1.82783 22.1601 1.75038 21.9656 1.75H19.6818C19.4874 1.75046 19.301 1.82794 19.1635 1.9655C19.0259 2.10306 18.9485 2.28948 18.9482 2.48398L18.9493 4.2575Z" fill="#A2A2A2"/>
</svg>
