<svg width="28" height="28" viewBox="0 0 28 28" fill="none" xmlns="http://www.w3.org/2000/svg">
<path d="M11.9514 17.402V7.98315H6.75974C5.76845 7.98315 4.95874 8.78988 4.95874 9.78416V15.601C4.95874 16.5923 5.76547 17.402 6.75974 17.402H11.9484H11.9514Z" fill="#A2A2A2"/>
<path d="M21.5374 4.84253C19.4506 6.84298 16.6345 7.98312 13.7439 7.98312H12.8479V17.4019H13.7439C16.6375 17.4019 19.4506 18.5421 21.5374 20.5425V4.84253Z" fill="#A2A2A2"/>
<path d="M4.06892 15.1812V10.2039C2.89604 10.4152 2 11.4512 2 12.6925C2 13.9339 2.89306 14.9698 4.06892 15.1812Z" fill="#A2A2A2"/>
<path d="M25.1156 22.0309V3.35408C25.1156 2.9909 24.9756 2.64856 24.7226 2.39553C23.8831 1.5501 22.4304 2.14845 22.4304 3.35408V22.0309C22.4304 22.7781 23.0317 23.3854 23.773 23.3854C24.5142 23.3854 25.1185 22.7781 25.1185 22.0309H25.1156Z" fill="#A2A2A2"/>
<path d="M8.92747 25.6299C9.67467 25.6299 10.2819 25.0226 10.2819 24.2754V18.2949H7.573V24.2754C7.573 25.0226 8.18028 25.6299 8.92747 25.6299Z" fill="#A2A2A2"/>
</svg>
