<svg width="28" height="28" viewBox="0 0 28 28" fill="none" xmlns="http://www.w3.org/2000/svg">
<g clip-path="url(#clip0_623_5695)">
<path fill-rule="evenodd" clip-rule="evenodd" d="M14.0002 15.6497L20.6 22.2495C20.8201 22.462 21.1148 22.5796 21.4207 22.577C21.7266 22.5743 22.0192 22.4516 22.2355 22.2353C22.4518 22.019 22.5745 21.7264 22.5772 21.4205C22.5798 21.1146 22.4622 20.8199 22.2497 20.5998L15.6499 14L22.2497 7.40017C22.4622 7.18013 22.5798 6.88543 22.5772 6.57953C22.5745 6.27364 22.4518 5.98102 22.2355 5.76471C22.0192 5.5484 21.7266 5.42571 21.4207 5.42305C21.1148 5.42039 20.8201 5.53798 20.6 5.7505L14.0002 12.3503L7.40037 5.7505C7.17934 5.54324 6.88635 5.43009 6.58339 5.43501C6.28042 5.43993 5.99126 5.56253 5.77708 5.77686C5.5629 5.99119 5.44051 6.28044 5.4358 6.58341C5.4311 6.88638 5.54445 7.17929 5.75187 7.40017L12.3505 14L5.7507 20.5998C5.63927 20.7075 5.55039 20.8362 5.48925 20.9785C5.42811 21.1209 5.39592 21.274 5.39458 21.4289C5.39323 21.5838 5.42275 21.7374 5.48141 21.8808C5.54007 22.0242 5.6267 22.1544 5.73624 22.264C5.84578 22.3735 5.97604 22.4601 6.11942 22.5188C6.2628 22.5775 6.41643 22.607 6.57134 22.6056C6.72624 22.6043 6.87933 22.5721 7.02167 22.511C7.16401 22.4498 7.29275 22.3609 7.40037 22.2495L14.0002 15.6497Z" fill="white" fill-opacity="0.5"/>
</g>
<defs>
<clipPath id="clip0_623_5695">
<rect width="28" height="28" fill="white"/>
</clipPath>
</defs>
</svg>
