<svg width="72" height="76" viewBox="0 0 72 76" fill="none" xmlns="http://www.w3.org/2000/svg">
<path d="M64.0462 64.2472C63.3898 64.9035 62.7335 65.5051 62.0225 66.1068C61.3115 66.7084 60.6005 67.31 59.8895 67.857C59.1237 68.4039 58.4127 68.8961 57.647 69.4431C56.8813 69.9353 56.0609 70.4276 55.2952 70.8651C54.4748 71.3027 53.6544 71.6855 52.834 72.0684C52.0136 72.4512 51.1385 72.7794 50.2634 73.1076C49.3883 73.4357 48.5132 73.7092 47.6381 73.928C46.763 74.1467 45.8879 74.4202 44.9581 74.5843C41.3483 75.2953 37.6292 75.5141 33.9647 75.1312C30.3002 74.8031 26.6905 73.9279 23.2995 72.5059C19.9085 71.1386 16.6815 69.2243 13.8375 66.8725C10.9934 64.5207 8.4775 61.786 6.39915 58.7231C5.90691 57.9574 5.41466 57.1917 4.92242 56.3713C4.48487 55.5509 4.04732 54.7305 3.66447 53.9101C3.28161 53.0897 2.89876 52.2146 2.5706 51.3942C2.24244 50.5191 1.91428 49.644 1.64081 48.7689C1.36734 47.8938 1.14857 47.0187 0.929791 46.0889C0.711017 45.2138 0.546936 44.284 0.437548 43.3542C0.328161 42.4244 0.218774 41.4947 0.109387 40.6196C0.0546935 39.6898 0 38.76 0 37.8302C0 36.9004 -1.01875e-07 35.9706 0.109387 35.0408C0.164081 34.111 0.273468 33.1812 0.382855 32.3061C0.492242 31.3763 0.711016 30.5012 0.875097 29.5715C1.09387 28.6417 1.31265 27.7666 1.58611 26.8915C1.85958 26.0164 2.13305 25.1413 2.46121 24.2662C2.78937 23.3911 3.17223 22.5707 3.55508 21.6956C3.93794 20.8752 4.37549 20.0548 4.81303 19.2344C5.25058 18.414 5.74283 17.6483 6.23507 16.8825C8.25873 13.8197 10.7746 11.0303 13.6734 8.6785C16.5175 6.32668 19.7444 4.35771 23.1901 2.93568C26.6358 1.51365 30.2455 0.583854 33.9647 0.200999C37.6839 -0.181856 41.403 -0.0177755 45.0675 0.693241C45.9973 0.857322 46.8724 1.0761 47.8022 1.34956C48.6773 1.56834 49.6071 1.8965 50.4822 2.16997C51.3573 2.49813 52.2324 2.82629 53.0528 3.20915C53.8732 3.592 54.7483 3.97486 55.5687 4.41241C56.3891 4.84995 57.2095 5.3422 57.9752 5.83444C58.7409 6.32668 59.5066 6.87362 60.2723 7.42055C61.038 7.96749 61.749 8.56912 62.4601 9.17075C63.1711 9.77238 63.8274 10.4287 64.5384 11.0303C64.6478 11.1397 64.7025 11.3038 64.7025 11.4679C64.7025 11.632 64.7025 11.796 64.5384 11.9054C64.429 12.0148 64.2649 12.0695 64.1009 12.0695C63.9368 12.0695 63.7727 12.0695 63.6633 11.9054C63.007 11.2491 62.3507 10.6475 61.6943 10.0458C61.038 9.44421 60.327 8.89728 59.616 8.35034C58.905 7.80341 58.1393 7.31116 57.3736 6.81892C56.6078 6.32668 55.8421 5.88913 55.0217 5.45158C54.2013 5.01403 53.4356 4.63118 52.6152 4.24832C51.7948 3.86547 50.9744 3.53731 50.0993 3.20915C49.2242 2.93568 48.4038 2.60752 47.5287 2.38874C46.6536 2.16997 45.7785 1.95119 44.9034 1.73242C41.3483 1.0214 37.6839 0.802628 34.1288 1.18548C30.519 1.51364 26.9639 2.38874 23.6276 3.75608C20.2913 5.12342 17.1191 6.983 14.3297 9.28013C11.5403 11.5773 9.02444 14.2572 7.00078 17.2654C6.50853 18.0311 6.01629 18.7968 5.57874 19.5625C5.1412 20.3282 4.70365 21.1486 4.32079 21.969C3.93794 22.7894 3.55508 23.6099 3.22692 24.4849C2.89876 25.3054 2.5706 26.1805 2.35182 27.0555C2.07836 27.9306 1.85958 28.8057 1.64081 29.6808C1.42203 30.5559 1.25795 31.4857 1.14856 32.3608C1.03918 33.2359 0.92979 34.1657 0.875097 35.0955C0.820403 36.0253 0.76571 36.9004 0.76571 37.8302C0.76571 38.76 0.76571 39.6351 0.875097 40.5649C0.984484 41.4947 1.03918 42.3698 1.14856 43.2995C1.25795 44.1746 1.42203 45.1044 1.64081 45.9795C1.85958 46.8546 2.07836 47.7297 2.29713 48.6048C2.5706 49.4799 2.84407 50.355 3.17223 51.1754C3.50039 51.9958 3.82855 52.8709 4.21141 53.6913C4.59426 54.5117 5.03181 55.3321 5.46936 56.0978C5.90691 56.8636 6.39915 57.684 6.89139 58.4497C8.91505 61.5125 11.3763 64.2472 14.1656 66.5443C16.955 68.8414 20.1272 70.7557 23.5182 72.1778C26.9092 73.5998 30.4643 74.4749 34.1288 74.8577C37.7386 75.2406 41.4577 75.0765 45.0675 74.3655C45.9426 74.2014 46.8724 73.9827 47.7475 73.7639C48.6226 73.5451 49.4977 73.2716 50.3728 72.9435C51.2479 72.6153 52.0683 72.2871 52.9434 71.959C53.7638 71.5761 54.5842 71.1933 55.4046 70.7557C56.225 70.3182 56.9907 69.8806 57.7564 69.3884C58.5221 68.8961 59.2878 68.4039 60.0535 67.857C60.7646 67.31 61.5303 66.7631 62.1866 66.1615C62.8429 65.5598 63.5539 64.9582 64.2103 64.3019L64.0462 64.2472Z" fill="#fff"/>
<path d="M70.8273 28.751C71.0461 29.5714 71.2102 30.3918 71.3743 31.2122C71.5383 32.0326 71.6477 32.8531 71.7571 33.7281C71.8665 34.5485 71.9212 35.4236 71.9759 36.244C72.0306 37.0645 71.9759 37.9395 71.9759 38.76C71.9759 39.5804 71.8665 40.4554 71.8118 41.2759C71.7024 42.0963 71.593 42.9714 71.4836 43.7918C71.3196 44.6122 71.1555 45.4326 70.9367 46.253C70.7179 47.0734 70.4992 47.8938 70.2257 48.7142C69.1318 51.9411 67.6004 55.0039 65.6314 57.7386C63.6625 60.4733 61.3106 62.9892 58.6307 65.0675C55.9507 67.1459 52.9425 68.8414 49.7703 70.0447C46.5981 71.2479 43.2071 72.0136 39.8161 72.2324C38.941 72.2324 38.1206 72.2871 37.2455 72.2871C36.3704 72.2871 35.55 72.2871 34.6749 72.1777C33.7998 72.123 32.9794 72.0136 32.159 71.9042C31.3386 71.7948 30.4635 71.6308 29.6431 71.412C28.8227 71.1932 28.0023 70.9744 27.1819 70.7557C26.3615 70.4822 25.541 70.2087 24.7753 69.9353C24.0096 69.6071 23.1892 69.2789 22.4235 68.8961C21.6578 68.5132 20.8921 68.1304 20.1811 67.6928C19.4701 67.2553 18.7043 66.8177 17.9933 66.3255C17.2823 65.8333 16.5713 65.341 15.915 64.8488C15.2587 64.3018 14.6023 63.7549 13.946 63.208C13.2897 62.6063 12.6881 62.0594 12.1411 61.4031C11.5395 60.8014 10.9926 60.1451 10.4456 59.4888C9.89869 58.8325 9.40645 58.1215 8.9142 57.4651C8.42196 56.7541 7.98441 56.0431 7.54686 55.3321C7.10931 54.6211 6.72646 53.8554 6.34361 53.0897C4.81219 50.0268 3.77301 46.7452 3.17138 43.3542C2.62444 39.9632 2.51506 36.5175 2.9526 33.1265C3.39015 29.7355 4.31994 26.3992 5.74198 23.2817C7.16401 20.1642 9.02359 17.2107 11.266 14.6401C11.813 13.9838 12.4146 13.3822 13.0162 12.7805C13.6178 12.1789 14.2742 11.5773 14.9305 11.0303C15.5868 10.4834 16.2431 9.93646 16.9542 9.44422C17.6652 8.95198 18.3762 8.45974 19.0872 7.96749C19.7982 7.52995 20.5639 7.0924 21.3296 6.70954C22.0954 6.32669 22.8611 5.94383 23.6268 5.56098C24.3925 5.23282 25.2129 4.90466 26.0333 4.63119C26.8537 4.35772 27.6741 4.08425 28.4945 3.86548C28.6586 3.86548 28.8227 3.86548 28.932 3.86548C29.0414 3.92017 29.1508 4.08425 29.2055 4.24833C29.2055 4.41241 29.2055 4.57649 29.2055 4.68588C29.1508 4.79527 28.9867 4.90466 28.8227 4.95935C28.0023 5.17812 27.2365 5.3969 26.4161 5.67037C25.6504 5.94383 24.83 6.2173 24.0643 6.54546C23.2986 6.87362 22.5329 7.25648 21.8219 7.63933C21.0562 8.02219 20.3452 8.40504 19.6341 8.84259C18.9231 9.28014 18.2121 9.77238 17.5558 10.2099C16.8995 10.7022 16.2431 11.1944 15.5868 11.7413C14.9305 12.2883 14.3289 12.8352 13.7272 13.4368C13.1256 14.0385 12.5787 14.6401 12.0317 15.2417C9.84399 17.7576 7.98441 20.547 6.61707 23.6098C5.24973 26.6727 4.26525 29.8996 3.8277 33.1812C3.39015 36.4628 3.44485 39.8538 3.93709 43.1354C4.48402 46.417 5.46851 49.644 6.94523 52.6521C7.32809 53.4178 7.71094 54.1288 8.14849 54.8398C8.58604 55.5509 9.02359 56.2619 9.51583 56.9729C10.0081 57.6839 10.5003 58.3402 10.9926 58.9966C11.5395 59.6529 12.0864 60.3092 12.6334 60.9108C13.235 61.5125 13.7819 62.1141 14.4383 62.661C15.0399 63.208 15.6962 63.7549 16.3525 64.3018C17.0089 64.7941 17.6652 65.341 18.3762 65.7786C19.0872 66.2708 19.7982 66.7083 20.5092 67.1459C21.2203 67.5834 21.986 67.9663 22.7517 68.3492C23.5174 68.732 24.2831 69.0602 25.0488 69.3883C25.8145 69.7165 26.6349 69.99 27.4006 70.2087C28.221 70.4822 28.9867 70.701 29.8071 70.8651C30.6275 71.0838 31.448 71.2479 32.2684 71.3573C33.0888 71.4667 33.9092 71.5761 34.7843 71.6855C35.6047 71.7402 36.4798 71.7948 37.3002 71.7948C38.1206 71.7948 38.9957 71.7948 39.8161 71.7402C43.1524 71.5214 46.4887 70.8104 49.6609 69.6618C52.8331 68.5132 55.7866 66.8724 58.4666 64.7941C61.1466 62.7704 63.4984 60.3092 65.4674 57.5745C67.4363 54.8398 69.0224 51.8317 70.1163 48.6048C70.3898 47.7844 70.6085 47.0187 70.8273 46.1983C71.0461 45.3779 71.2102 44.5575 71.3743 43.7371C71.5383 42.9167 71.6477 42.0963 71.7571 41.2212C71.8665 40.4008 71.9212 39.5257 71.9212 38.7053C71.9212 37.8849 71.9212 37.0098 71.9212 36.1894C71.9212 35.369 71.8118 34.4939 71.7571 33.6735C71.6477 32.8531 71.5383 31.978 71.3743 31.1576C71.2102 30.3371 71.0461 29.5167 70.8273 28.6963V28.751Z" fill="#fff"/>
<path d="M45.7827 68.4039C45.017 68.6227 44.2513 68.7868 43.5403 68.8961C42.7746 69.0602 42.0089 69.1696 41.2432 69.279C40.4775 69.3884 39.7117 69.4431 38.946 69.4431C38.1803 69.4431 37.4146 69.4431 36.5942 69.4431C35.8285 69.4431 35.0628 69.3884 34.2971 69.279C33.5314 69.2243 32.7657 69.1149 32 68.9508C31.2342 68.7868 30.4685 68.6227 29.7028 68.4586C28.9371 68.2945 28.2261 68.0757 27.4604 67.8023C24.5069 66.8178 21.7176 65.3958 19.2017 63.5909C16.6858 61.786 14.3886 59.5982 12.4744 57.137C10.5601 54.6758 9.02867 51.9411 7.9348 49.0424C6.84093 46.1436 6.12991 43.0261 5.91114 39.9633C5.91114 39.1975 5.85645 38.4318 5.85645 37.6114C5.85645 36.8457 5.85645 36.0253 5.96583 35.2596C6.02053 34.4939 6.12991 33.7282 6.2393 32.9078C6.34869 32.1421 6.51277 31.3764 6.67685 30.6107C6.84093 29.8449 7.0597 29.0792 7.27848 28.3682C7.49725 27.6572 7.77072 26.8915 8.04419 26.1805C8.31765 25.4695 8.64582 24.7584 8.97398 24.0474C9.30214 23.3364 9.68499 22.6254 10.0678 21.9691C10.4507 21.3128 10.8882 20.6564 11.3258 20.0001C11.7633 19.3438 12.2009 18.7422 12.6931 18.0858C13.1854 17.4842 13.6776 16.8826 14.2246 16.2809C14.7715 15.6793 15.3184 15.1324 15.8654 14.5854C16.4123 14.0385 17.0139 13.5463 17.6156 13.054C18.2172 12.5618 18.8735 12.0695 19.4751 11.632C20.1315 11.1944 20.7878 10.7569 21.4441 10.374C22.1004 9.99119 22.8114 9.60833 23.5225 9.22548C26.3118 7.80345 29.32 6.87366 32.4375 6.32672C35.555 5.77979 38.7273 5.72509 41.8448 6.16264C44.9623 6.5455 48.0252 7.42059 50.8692 8.73324C53.7133 10.0459 56.448 11.7414 58.7998 13.8197C59.4014 14.312 59.9484 14.8589 60.55 15.4605C61.0969 16.0075 61.6439 16.6091 62.1361 17.2107C62.6283 17.8124 63.1206 18.414 63.6128 19.0703C64.1051 19.7266 64.5426 20.383 64.9255 21.0393C65.363 21.6956 65.7459 22.4066 66.1287 23.0629C66.5116 23.7193 66.8397 24.485 67.1679 25.196C67.4961 25.907 67.7695 26.6727 68.043 27.3837C68.3165 28.1494 68.5352 28.8605 68.754 29.6262C68.754 29.7903 68.754 29.9543 68.754 30.0637C68.6993 30.1731 68.5352 30.2825 68.3712 30.3372C68.2071 30.3372 68.043 30.3372 67.9336 30.3372C67.8242 30.2825 67.7148 30.1184 67.6601 29.9543C67.4414 29.2433 67.2226 28.4776 67.0038 27.7666C66.785 27.0556 66.5116 26.3446 66.1834 25.6335C65.8553 24.9225 65.5271 24.2662 65.1989 23.5552C64.8708 22.8442 64.4879 22.2425 64.0504 21.5862C63.6675 20.9299 63.23 20.3283 62.7924 19.6719C62.3549 19.0703 61.8626 18.4687 61.3704 17.8671C60.8781 17.2654 60.3859 16.7185 59.839 16.1716C59.292 15.6246 58.7451 15.0777 58.1982 14.5854C55.901 12.5618 53.3304 10.8663 50.5411 9.60833C47.7517 8.35038 44.7982 7.47529 41.7901 7.03774C38.782 6.60019 35.6644 6.65488 32.6563 7.14712C29.6481 7.63937 26.6947 8.56916 23.96 9.8818C23.249 10.21 22.5927 10.5928 21.9363 10.9757C21.28 11.3585 20.6237 11.7414 20.0221 12.1789C19.4204 12.6165 18.7641 13.054 18.1625 13.5463C17.5609 14.0385 16.9592 14.5308 16.4123 15.023C15.8654 15.5699 15.3184 16.1169 14.7715 16.6638C14.2246 17.2107 13.7323 17.8124 13.2401 18.414C12.7478 19.0156 12.3103 19.6173 11.8727 20.2736C11.4352 20.9299 11.0523 21.5315 10.6148 22.1878C10.2319 22.8442 9.84907 23.5552 9.52091 24.2115C9.19275 24.9225 8.86459 25.5788 8.59112 26.2899C8.31765 27.0009 8.04419 27.7119 7.82541 28.4776C7.60664 29.1886 7.38786 29.9543 7.22378 30.72C7.0597 31.4858 6.89562 32.1968 6.78624 32.9625C6.67685 33.7282 6.56746 34.4939 6.51277 35.2596C6.45807 36.0253 6.40338 36.791 6.40338 37.5567C6.40338 38.3224 6.40338 39.0882 6.40338 39.8539C6.56746 42.9167 7.22378 45.9795 8.31765 48.8783C9.41152 51.7771 10.8883 54.5117 12.7478 56.9729C14.6074 59.4342 16.8498 61.6219 19.3658 63.4268C21.8817 65.2317 24.6163 66.6537 27.5698 67.6929C28.2808 67.9664 29.0465 68.1851 29.8122 68.3492C30.5779 68.568 31.2889 68.7321 32.0546 68.8414C32.8204 69.0055 33.5861 69.1149 34.3518 69.1696C35.1175 69.279 35.8832 69.3337 36.6489 69.3337C37.4146 69.3337 38.1803 69.3337 38.946 69.3337C39.7117 69.3337 40.4775 69.2243 41.2432 69.1696C42.0089 69.0602 42.7746 68.9508 43.5403 68.8414C44.306 68.7321 45.0717 68.5133 45.7827 68.3492V68.4039Z" fill="#fff"/>
<path d="M57.7003 17.3748C58.1926 17.867 58.6848 18.414 59.1224 18.9062C59.5599 19.4531 60.0522 20.0001 60.435 20.547C60.8726 21.094 61.2554 21.6956 61.6383 22.2972C62.0211 22.8988 62.404 23.5005 62.7321 24.1021C63.0603 24.7037 63.3885 25.3601 63.6619 26.0164C63.9354 26.6727 64.2089 27.329 64.4823 27.9853C64.7011 28.6417 64.9199 29.298 65.1387 30.009C65.3574 30.72 65.5215 31.3763 65.6309 32.0874C66.1778 34.8767 66.3419 37.7208 66.0685 40.5102C65.795 43.2995 65.1387 46.0889 64.0448 48.7142C63.0056 51.3395 61.5289 53.8007 59.724 55.9885C57.9191 58.1762 55.8408 60.1452 53.4889 61.7313C51.1371 63.3174 48.5665 64.5753 45.8318 65.3958C43.0972 66.2162 40.2531 66.6537 37.409 66.6537C34.565 66.6537 31.7209 66.2708 28.9862 65.4504C26.2515 64.63 23.6263 63.4268 21.2744 61.8407C18.8679 60.2546 16.7349 58.3403 14.93 56.1525C13.1251 53.9648 11.5937 51.5036 10.4998 48.8236C9.40593 46.1983 8.69491 43.4089 8.42144 40.5102C8.14798 37.6661 8.25736 34.7673 8.8043 31.978C8.91369 31.267 9.07777 30.5559 9.29654 29.8996C9.46062 29.1886 9.67939 28.5323 9.95286 27.8213C10.1716 27.1649 10.4451 26.4539 10.7186 25.7976C10.992 25.1413 11.3202 24.485 11.6484 23.8833C11.9765 23.227 12.3594 22.6254 12.7422 22.0237C13.1251 21.4221 13.5079 20.8205 13.9455 20.2189C14.383 19.6172 14.8206 19.0703 15.3128 18.5234C15.8051 17.9764 16.2426 17.4295 16.7896 16.9372C16.8989 16.8279 17.063 16.7732 17.2271 16.7732C17.3912 16.7732 17.5553 16.7732 17.6647 16.9372C17.774 17.0466 17.8287 17.2107 17.8287 17.3748C17.8287 17.5389 17.8287 17.703 17.6647 17.8123C17.1724 18.3046 16.7349 18.7968 16.2426 19.3438C15.8051 19.836 15.3675 20.3829 14.93 20.9299C14.5471 21.4768 14.1096 22.0784 13.7814 22.6254C13.3986 23.227 13.0704 23.7739 12.7422 24.4303C12.4141 25.0319 12.1406 25.6335 11.8124 26.2898C11.539 26.8915 11.2655 27.5478 11.0467 28.2041C10.828 28.8604 10.6092 29.5168 10.4451 30.1731C10.281 30.8294 10.1169 31.4857 9.95286 32.1967C9.40593 34.9314 9.24185 37.7208 9.51531 40.4555C9.78878 43.1902 10.4451 45.9248 11.4843 48.4954C12.5235 51.066 13.9455 53.4725 15.6957 55.6056C17.4459 57.7386 19.5242 59.6529 21.8214 61.1843C24.1185 62.7705 26.6344 63.9737 29.3144 64.7394C31.9944 65.5598 34.729 65.9974 37.5184 65.9974C40.3078 65.9974 43.0972 65.6145 45.7771 64.7941C48.4571 63.9737 51.0277 62.8252 53.3249 61.2937C55.6767 59.7623 57.755 57.848 59.5599 55.715C61.3648 53.5819 62.7868 51.1207 63.8807 48.5501C64.9746 45.9795 65.6309 43.2449 65.9591 40.4555C66.2325 37.6661 66.1231 34.822 65.5762 32.0874C65.4668 31.3763 65.3027 30.72 65.084 30.0637C64.9199 29.4074 64.7011 28.6964 64.4823 28.04C64.2636 27.3837 63.9901 26.7274 63.7166 26.0711C63.4432 25.4147 63.115 24.8131 62.7868 24.1568C62.4587 23.5552 62.1305 22.9535 61.7477 22.3519C61.3648 21.7503 60.982 21.2033 60.5444 20.6017C60.1069 20.0548 59.6693 19.5078 59.2318 18.9609C58.7942 18.414 58.302 17.9217 57.8097 17.4295L57.7003 17.3748Z" fill="#fff"/>
<path d="M30.6813 62.5517C30.0797 62.3876 29.4781 62.2235 28.8764 62.0047C28.2748 61.786 27.6732 61.5672 27.1263 61.3484C26.5246 61.075 25.9777 60.8015 25.4308 60.528C24.8838 60.2546 24.3369 59.9264 23.7899 59.5982C23.243 59.2701 22.7508 58.8872 22.2038 58.5591C21.6569 58.2309 21.1647 57.7934 20.7271 57.4105C20.2349 56.9729 19.7973 56.5901 19.3051 56.1525C18.8128 55.715 18.43 55.2774 17.9924 54.7852C16.2969 52.8709 14.9296 50.7379 13.8357 48.4407C12.7418 46.1436 12.0308 43.6824 11.7027 41.1665C11.3745 38.6506 11.3745 36.08 11.8121 33.5641C12.2496 31.0482 12.9606 28.587 14.1092 26.2898C15.2031 23.9927 16.6798 21.8597 18.43 20.0001C20.1802 18.1405 22.2038 16.4997 24.3916 15.2417C26.5793 13.9291 28.9858 12.9993 31.5017 12.3977C34.0176 11.796 36.5882 11.5773 39.1588 11.7414C41.7294 11.9054 44.2453 12.4524 46.6519 13.3275C49.0584 14.2026 51.3555 15.4605 53.3792 17.0466C55.4575 18.5781 57.2624 20.4923 58.7391 22.5707C60.2706 24.649 61.4738 26.9462 62.2942 29.4074C62.513 30.009 62.6771 30.6106 62.8412 31.267C63.0052 31.8686 63.1693 32.5249 63.2787 33.1812C63.3881 33.8376 63.4975 34.4392 63.5522 35.0955C63.6069 35.7518 63.6616 36.4082 63.7163 37.0098C63.7163 37.6661 63.7163 38.3224 63.7163 38.9241C63.7163 39.5804 63.6616 40.2367 63.5522 40.8383C63.4975 41.4947 63.3881 42.0963 63.2787 42.7526C63.1693 43.4089 63.0052 44.0106 62.8412 44.6669C62.8412 44.831 62.6771 44.9404 62.5677 45.0497C62.4583 45.1591 62.2942 45.1591 62.1301 45.1044C61.9661 45.1044 61.8567 44.9404 61.7473 44.831C61.6379 44.7216 61.6379 44.5575 61.6926 44.3934C61.8567 43.7918 61.9661 43.1902 62.1301 42.5885C62.2942 41.9869 62.3489 41.3853 62.4036 40.7836C62.4583 40.182 62.513 39.5257 62.5677 38.9241C62.5677 38.3224 62.5677 37.6661 62.5677 37.0645C62.5677 36.4629 62.513 35.8065 62.4583 35.2049C62.4036 34.6033 62.2942 34.0016 62.1848 33.3453C62.0754 32.7437 61.9661 32.1421 61.802 31.5404C61.6379 30.9388 61.4738 30.3372 61.255 29.7355C60.4893 27.3837 59.3408 25.1413 57.9187 23.1176C56.4967 21.094 54.7465 19.2891 52.7775 17.7576C50.8086 16.2262 48.6208 15.023 46.3237 14.0932C43.9719 13.2181 41.5654 12.6711 39.0495 12.5071C36.5882 12.343 34.0723 12.5071 31.6111 13.1087C29.2046 13.6556 26.7981 14.5854 24.665 15.8434C22.4773 17.1013 20.5083 18.6327 18.7581 20.4376C17.0079 22.2425 15.5859 24.3209 14.4373 26.5633C13.2888 28.8058 12.5231 31.2123 12.0855 33.6735C11.648 36.1347 11.5933 38.7053 11.9214 41.1665C12.2496 43.6824 12.9059 46.0889 13.9451 48.3861C14.9843 50.6832 16.3516 52.8162 17.9924 54.7305C18.43 55.2227 18.8128 55.6603 19.3051 56.0978C19.7426 56.5354 20.2349 56.9729 20.6724 57.4105C21.1647 57.848 21.6569 58.2309 22.1491 58.6138C22.6414 58.9966 23.1883 59.3248 23.7353 59.7076C24.2822 60.0358 24.8291 60.3639 25.3761 60.6374C25.923 60.9109 26.5246 61.1843 27.0716 61.4578C27.6732 61.7313 28.2201 61.9501 28.8218 62.1688C29.4234 62.3876 30.025 62.5517 30.6266 62.7158L30.6813 62.5517Z" fill="#fff"/>
<path d="M43.264 15.57C43.811 15.7341 44.3579 15.8982 44.8501 16.0622C45.3971 16.2263 45.8893 16.4451 46.4363 16.6639C46.9285 16.8827 47.4754 17.1014 47.9677 17.3749C48.4599 17.6484 48.9522 17.9218 49.4444 18.1953C49.9366 18.4688 50.3742 18.7969 50.8664 19.1251C51.3587 19.4533 51.7962 19.7814 52.1791 20.1643C52.6166 20.5471 52.9995 20.93 53.437 21.3128C53.8199 21.6957 54.2574 22.1332 54.5856 22.5161C56.0623 24.2116 57.3203 26.1259 58.2501 28.1495C59.1799 30.2279 59.8362 32.4156 60.1644 34.6581C60.4925 36.9005 60.4378 39.1976 60.1097 41.4401C59.7268 43.6825 59.0705 45.8702 58.086 47.8939C57.1015 49.9176 55.7889 51.8319 54.2574 53.4727C52.726 55.1135 50.9211 56.5902 48.9522 57.7388C46.9832 58.8873 44.8501 59.7624 42.6077 60.2547C40.3653 60.8016 38.0681 61.0204 35.8257 60.8563C33.5286 60.7469 31.2861 60.2547 29.1531 59.4343C27.02 58.6139 24.9964 57.52 23.1368 56.1526C21.3319 54.7853 19.6911 53.0898 18.3237 51.2302C16.9564 49.3706 15.9172 47.2923 15.1515 45.1592C14.9874 44.6123 14.8233 44.0654 14.6593 43.5184C14.4952 42.9715 14.3858 42.4246 14.2764 41.8229C14.167 41.276 14.0576 40.6744 14.0029 40.1274C13.9482 39.5805 13.8936 38.9789 13.8936 38.4319C13.8936 37.8303 13.8936 37.2834 13.8936 36.6817C13.8936 36.0801 13.9482 35.5332 14.0029 34.9862C14.0576 34.4393 14.167 33.8377 14.2764 33.2907C14.3858 32.7438 14.4952 32.1422 14.6593 31.5952C14.6593 31.4311 14.8233 31.3218 14.9327 31.2124C15.0421 31.1577 15.2062 31.103 15.3703 31.1577C15.5344 31.1577 15.6438 31.3218 15.7531 31.4311C15.8078 31.5405 15.8625 31.7046 15.8078 31.8687C15.6438 32.4156 15.5344 32.9079 15.425 33.4548C15.3156 34.0017 15.2062 34.5487 15.1515 35.0956C15.0968 35.6426 15.0421 36.1895 15.0421 36.7364C15.0421 37.2834 15.0421 37.8303 15.0421 38.3772C15.0421 38.9242 15.0421 39.4711 15.1515 40.018C15.1515 40.565 15.2609 41.1119 15.3703 41.6588C15.4797 42.2058 15.5891 42.7527 15.6984 43.245C15.8078 43.7919 15.9719 44.2841 16.136 44.8311C16.847 46.9094 17.8315 48.8784 19.0894 50.6833C20.3474 52.4882 21.8788 54.0743 23.629 55.4416C25.3792 56.809 27.2935 57.9028 29.3718 58.6685C31.4502 59.4343 33.5833 59.9265 35.8257 60.0906C38.0134 60.2547 40.2559 60.0906 42.3889 59.5983C44.522 59.1061 46.655 58.2857 48.5693 57.1918C50.4836 56.098 52.2885 54.7306 53.7652 53.0898C55.2966 51.5037 56.6093 49.6441 57.5938 47.6751C58.5782 45.7062 59.2893 43.5184 59.6721 41.3307C60.055 39.1429 60.1097 36.9005 59.8362 34.6581C59.5627 32.4156 58.9611 30.2826 58.0313 28.2042C57.1015 26.1806 55.8983 24.2663 54.4215 22.5708C54.0387 22.1332 53.6558 21.7504 53.273 21.3675C52.8901 20.9847 52.4525 20.6018 52.0697 20.219C51.6321 19.8361 51.1946 19.5079 50.757 19.1798C50.3195 18.8516 49.8273 18.5235 49.3897 18.25C48.8975 17.9218 48.4052 17.6484 47.913 17.4296C47.4207 17.2108 46.9285 16.9373 46.3816 16.7186C45.8893 16.4998 45.3424 16.281 44.7954 16.1169C44.2485 15.9529 43.7563 15.7888 43.2093 15.6247L43.264 15.57Z" fill="#fff"/>
<path d="M23.0996 37.8459H21.4115V29.6962H23.0996V37.8459Z" fill="#fff"/>
<path d="M33.3468 29.6962V37.8459H31.1347L26.7688 31.2097H26.6524V37.8459H24.9642V29.6962H27.1763L31.5422 36.3324H31.6586V29.6962H33.3468Z" fill="#fff"/>
<path d="M36.9018 30.5694V33.3636H41.1512V34.2367H36.9018V37.8459H35.2136V29.6962H42.5483V30.5694H36.9018Z" fill="#fff"/>
<path d="M47.6701 30.2783C47.2742 30.2783 46.9017 30.3482 46.5524 30.4879C46.2109 30.6276 45.9121 30.841 45.6559 31.1282C45.3998 31.4154 45.1941 31.7802 45.0389 32.2226C44.8914 32.6573 44.8177 33.1734 44.8177 33.771C44.8177 34.3687 44.8914 34.8887 45.0389 35.3311C45.1941 35.7658 45.3998 36.1267 45.6559 36.4139C45.9121 36.701 46.2109 36.9145 46.5524 37.0542C46.9017 37.1939 47.2742 37.2638 47.6701 37.2638C48.0659 37.2638 48.4346 37.1939 48.7761 37.0542C49.1254 36.9145 49.4281 36.701 49.6842 36.4139C49.9403 36.1267 50.1421 35.7658 50.2896 35.3311C50.4448 34.8887 50.5224 34.3687 50.5224 33.771C50.5224 33.1734 50.4448 32.6573 50.2896 32.2226C50.1421 31.7802 49.9403 31.4154 49.6842 31.1282C49.4281 30.841 49.1254 30.6276 48.7761 30.4879C48.4346 30.3482 48.0659 30.2783 47.6701 30.2783ZM47.6701 29.4634C48.3686 29.4634 49.0012 29.5565 49.5678 29.7428C50.1421 29.9291 50.6311 30.2046 51.0347 30.5694C51.4461 30.9342 51.7643 31.3844 51.9894 31.9199C52.2145 32.4555 52.327 33.0725 52.327 33.771C52.327 34.4696 52.2145 35.0866 51.9894 35.6222C51.7643 36.1577 51.4461 36.6079 51.0347 36.9727C50.6311 37.3375 50.1421 37.613 49.5678 37.7993C49.0012 37.9856 48.3686 38.0787 47.6701 38.0787C46.9715 38.0787 46.3351 37.9856 45.7607 37.7993C45.1864 37.613 44.6935 37.3375 44.2821 36.9727C43.8785 36.6079 43.5642 36.1577 43.3391 35.6222C43.1218 35.0866 43.0131 34.4696 43.0131 33.771C43.0131 33.0725 43.1218 32.4555 43.3391 31.9199C43.5642 31.3844 43.8785 30.9342 44.2821 30.5694C44.6935 30.2046 45.1864 29.9291 45.7607 29.7428C46.3351 29.5565 46.9715 29.4634 47.6701 29.4634Z" fill="#fff"/>
<path d="M25.767 40.8938L22.0856 45.1689H25.8461V45.7627H20.7002V45.0898L24.3815 40.8147H20.7794V40.2209H25.767V40.8938Z" fill="#fff"/>
<path d="M28.2982 43.8231H30.7524L29.5649 40.8938H29.4857L28.2982 43.8231ZM30.4357 40.2209L32.692 45.7627H31.552L31.0295 44.4168H28.0211L27.4986 45.7627H26.3586L28.6149 40.2209H30.4357Z" fill="#fff"/>
<path d="M37.0487 42.9522L39.1467 45.7627H37.8404L36.0196 43.3085H34.6341V45.7627H33.4862V40.2209H34.6341V42.7147H35.9404L37.7613 40.2209H39.0279L37.0487 42.9522Z" fill="#fff"/>
<path d="M42.5519 40.6168C42.2827 40.6168 42.0293 40.6643 41.7918 40.7593C41.5596 40.8543 41.3564 40.9994 41.1822 41.1947C41.0081 41.39 40.8682 41.638 40.7627 41.9389C40.6624 42.2344 40.6122 42.5854 40.6122 42.9918C40.6122 43.3982 40.6624 43.7518 40.7627 44.0527C40.8682 44.3482 41.0081 44.5936 41.1822 44.7889C41.3564 44.9842 41.5596 45.1293 41.7918 45.2243C42.0293 45.3193 42.2827 45.3668 42.5519 45.3668C42.821 45.3668 43.0717 45.3193 43.304 45.2243C43.5415 45.1293 43.7473 44.9842 43.9215 44.7889C44.0956 44.5936 44.2329 44.3482 44.3331 44.0527C44.4387 43.7518 44.4915 43.3982 44.4915 42.9918C44.4915 42.5854 44.4387 42.2344 44.3331 41.9389C44.2329 41.638 44.0956 41.39 43.9215 41.1947C43.7473 40.9994 43.5415 40.8543 43.304 40.7593C43.0717 40.6643 42.821 40.6168 42.5519 40.6168ZM42.5519 40.0626C43.0269 40.0626 43.457 40.1259 43.8423 40.2526C44.2329 40.3793 44.5654 40.5666 44.8398 40.8147C45.1195 41.0627 45.3359 41.3689 45.489 41.733C45.6421 42.0972 45.7186 42.5168 45.7186 42.9918C45.7186 43.4668 45.6421 43.8864 45.489 44.2506C45.3359 44.6147 45.1195 44.9209 44.8398 45.1689C44.5654 45.417 44.2329 45.6043 43.8423 45.731C43.457 45.8577 43.0269 45.921 42.5519 45.921C42.0768 45.921 41.6441 45.8577 41.2535 45.731C40.8629 45.6043 40.5278 45.417 40.2481 45.1689C39.9736 44.9209 39.7599 44.6147 39.6068 44.2506C39.459 43.8864 39.3851 43.4668 39.3851 42.9918C39.3851 42.5168 39.459 42.0972 39.6068 41.733C39.7599 41.3689 39.9736 41.0627 40.2481 40.8147C40.5278 40.5666 40.8629 40.3793 41.2535 40.2526C41.6441 40.1259 42.0768 40.0626 42.5519 40.0626Z" fill="#fff"/>
<path d="M52.5301 40.2209V45.7627H51.0259L48.0571 41.2501H47.978V45.7627H46.83V40.2209H48.3342L51.303 44.7335H51.3822V40.2209H52.5301Z" fill="#fff"/>
</svg>
