<svg width="27" height="19" viewBox="0 0 27 19" fill="none" xmlns="http://www.w3.org/2000/svg">
<path d="M25.0721 6.93776C24.5693 6.38419 23.8939 6.06424 23.1727 5.91696C23.0965 4.13437 22.1773 2.5143 20.5775 1.65601C18.9981 0.807885 16.9971 0.762178 15.4126 1.6357C14.4781 2.14864 13.7875 2.95613 13.3405 3.90075C12.8936 3.74332 12.4264 3.63667 11.949 3.57572C9.13037 3.23546 6.19494 4.69302 5.08273 7.36944C4.77801 8.10076 4.62565 8.89302 4.60026 9.68528C3.44234 9.89858 2.41138 10.4928 1.74101 11.4983C1.09602 12.4684 0.887802 13.6821 1.0554 14.8248C1.22299 15.9726 1.81211 17.0543 2.74149 17.7552C3.22396 18.1208 3.79276 18.3697 4.38696 18.4916C5.20969 18.6592 6.06798 18.5932 6.90087 18.5932H17.444C18.1347 18.5932 18.8305 18.5119 19.4856 18.2834C21.6898 17.5216 22.9797 15.3327 22.8934 13.0473C24.2392 12.8848 25.3362 12.0214 25.7882 10.7162C26.2249 9.44659 25.9863 7.93824 25.0721 6.93776ZM24.4474 11.737C24.0005 12.1535 23.4317 12.382 22.8375 12.448C22.7004 11.4933 22.3297 10.5791 21.7253 9.81733C20.9737 8.87778 19.8767 8.26327 18.6985 8.04997C18.3582 7.99919 18.0128 7.96364 17.6675 7.95856C17.6624 7.95856 17.6573 7.95856 17.6523 7.95856H17.6421C17.4948 7.95856 17.3476 7.96364 17.2003 7.97887C16.8295 6.80571 16.1693 5.72397 15.2095 4.94187C14.8032 4.61176 14.3664 4.34259 13.8992 4.12929C14.6254 2.5854 16.1541 1.6357 17.8656 1.6103C19.3485 1.58999 20.8721 2.23497 21.7507 3.45892C22.3195 4.25626 22.5684 5.20088 22.5684 6.17089C22.5684 6.35372 22.7106 6.45529 22.8731 6.47561C24.0869 6.63812 25.0315 7.48625 25.3108 8.67972C25.5597 9.75638 25.26 10.9702 24.4474 11.737Z" fill="#164B60" stroke="#164B60" stroke-width="0.5"/>
</svg>
