<svg width="163" height="171" viewBox="0 0 163 171" fill="none" xmlns="http://www.w3.org/2000/svg">
<path d="M144.993 145.448C143.507 146.934 142.021 148.296 140.411 149.658C138.802 151.02 137.192 152.382 135.582 153.62C133.849 154.858 132.239 155.972 130.506 157.211C128.772 158.325 126.915 159.439 125.181 160.43C123.324 161.42 121.467 162.287 119.61 163.154C117.752 164.021 115.771 164.764 113.79 165.506C111.809 166.249 109.828 166.868 107.847 167.364C105.866 167.859 103.884 168.478 101.78 168.85C93.6075 170.459 85.1878 170.954 76.8919 170.088C68.596 169.345 60.4239 167.364 52.7471 164.144C45.0703 161.049 37.7649 156.715 31.3263 151.391C24.8877 146.067 19.192 139.876 14.4869 132.942C13.3725 131.208 12.2581 129.475 11.1437 127.618C10.1532 125.76 9.16264 123.903 8.2959 122.046C7.42916 120.188 6.56243 118.207 5.81951 116.35C5.0766 114.369 4.33368 112.388 3.71458 110.407C3.09549 108.426 2.60021 106.445 2.10493 104.34C1.60965 102.358 1.23819 100.254 0.990555 98.1486C0.742916 96.0437 0.495277 93.9387 0.247639 91.9576C0.123819 89.8527 0 87.7478 0 85.6428C0 83.5379 -2.30632e-07 81.433 0.247639 79.328C0.371458 77.2231 0.619097 75.1182 0.866736 73.1371C1.11437 71.0321 1.60965 69.051 1.98111 66.9461C2.47639 64.8412 2.97167 62.8601 3.59076 60.8789C4.20986 58.8978 4.82896 56.9167 5.57187 54.9356C6.31479 52.9545 7.18153 51.0972 8.04826 49.1161C8.915 47.2588 9.90555 45.4015 10.8961 43.5442C11.8867 41.6869 13.001 39.9535 14.1154 38.22C18.6967 31.2861 24.3924 24.9713 30.9549 19.6471C37.3935 14.3228 44.6988 9.86532 52.4994 6.64601C60.3 3.4267 68.4721 1.32177 76.8919 0.455037C85.3116 -0.4117 93.7313 -0.0402416 102.027 1.56941C104.132 1.94087 106.113 2.43615 108.218 3.05525C110.199 3.55052 112.304 4.29344 114.285 4.91254C116.266 5.65545 118.248 6.39837 120.105 7.26511C121.962 8.13184 123.943 8.99858 125.801 9.98914C127.658 10.9797 129.515 12.0941 131.249 13.2084C132.982 14.3228 134.716 15.561 136.449 16.7992C138.182 18.0374 139.792 19.3994 141.402 20.7614C143.011 22.1234 144.497 23.6093 146.107 24.9713C146.355 25.2189 146.478 25.5904 146.478 25.9619C146.478 26.3333 146.478 26.7048 146.107 26.9524C145.859 27.2 145.488 27.3239 145.116 27.3239C144.745 27.3239 144.373 27.3239 144.126 26.9524C142.64 25.4666 141.154 24.1046 139.668 22.7425C138.182 21.3805 136.573 20.1423 134.963 18.9041C133.354 17.6659 131.62 16.5516 129.887 15.4372C128.153 14.3228 126.42 13.3323 124.562 12.3417C122.705 11.3512 120.972 10.4844 119.114 9.61768C117.257 8.75094 115.4 8.00803 113.419 7.26511C111.437 6.64601 109.58 5.90309 107.599 5.40782C105.618 4.91254 103.637 4.41726 101.656 3.92198C93.6075 2.31233 85.3116 1.81705 77.2633 2.68379C69.0912 3.4267 61.043 5.40782 53.49 8.5033C45.937 11.5988 38.7555 15.8087 32.4407 21.0091C26.1259 26.2095 20.4302 32.2766 15.8489 39.0867C14.7345 40.8202 13.6201 42.5537 12.6296 44.2871C11.639 46.0206 10.6485 47.8779 9.78173 49.7352C8.915 51.5925 8.04826 53.4498 7.30534 55.4309C6.56243 57.2882 5.81951 59.2693 5.32423 61.2504C4.70514 63.2315 4.20986 65.2126 3.71458 67.1937C3.2193 69.1749 2.84785 71.2798 2.60021 73.2609C2.35257 75.242 2.10493 77.3469 1.98111 79.4519C1.85729 81.5568 1.73347 83.5379 1.73347 85.6428C1.73347 87.7478 1.73347 89.7289 1.98111 91.8338C2.22875 93.9387 2.35257 95.9199 2.60021 98.0248C2.84785 100.006 3.2193 102.111 3.71458 104.092C4.20986 106.073 4.70514 108.054 5.20042 110.035C5.81951 112.016 6.43861 113.998 7.18153 115.855C7.92444 117.712 8.66736 119.693 9.53409 121.55C10.4008 123.408 11.3914 125.265 12.3819 126.999C13.3725 128.732 14.4869 130.589 15.6012 132.323C20.1826 139.257 25.7544 145.448 32.0692 150.648C38.384 155.848 45.5655 160.182 53.2423 163.401C60.9191 166.621 68.9674 168.602 77.2633 169.469C85.4354 170.335 93.8551 169.964 102.027 168.354C104.008 167.983 106.113 167.488 108.094 166.992C110.075 166.497 112.057 165.878 114.038 165.135C116.019 164.392 117.876 163.649 119.857 162.906C121.714 162.039 123.572 161.173 125.429 160.182C127.286 159.192 129.02 158.201 130.753 157.087C132.487 155.972 134.22 154.858 135.954 153.62C137.563 152.382 139.297 151.143 140.783 149.781C142.268 148.419 143.878 147.057 145.364 145.571L144.993 145.448Z" fill="#164B60"/>
<path d="M160.345 65.0888C160.84 66.9461 161.212 68.8034 161.583 70.6607C161.955 72.518 162.202 74.3753 162.45 76.3564C162.697 78.2137 162.821 80.1948 162.945 82.0521C163.069 83.9094 162.945 85.8905 162.945 87.7478C162.945 89.6051 162.697 91.5862 162.574 93.4435C162.326 95.3008 162.078 97.2819 161.831 99.1392C161.459 100.996 161.088 102.854 160.593 104.711C160.097 106.568 159.602 108.426 158.983 110.283C156.506 117.588 153.04 124.522 148.582 130.713C144.125 136.904 138.8 142.6 132.733 147.305C126.666 152.01 119.856 155.848 112.674 158.572C105.493 161.297 97.816 163.03 90.1392 163.525C88.1581 163.525 86.3008 163.649 84.3197 163.649C82.3386 163.649 80.4813 163.649 78.5002 163.401C76.5191 163.278 74.6618 163.03 72.8045 162.782C70.9472 162.535 68.9661 162.163 67.1088 161.668C65.2515 161.173 63.3942 160.677 61.537 160.182C59.6797 159.563 57.8224 158.944 56.0889 158.325C54.3554 157.582 52.4981 156.839 50.7647 155.972C49.0312 155.106 47.2977 154.239 45.6881 153.248C44.0784 152.258 42.3449 151.267 40.7353 150.153C39.1256 149.038 37.516 147.924 36.0302 146.81C34.5443 145.571 33.0585 144.333 31.5727 143.095C30.0868 141.733 28.7248 140.495 27.4866 139.009C26.1246 137.647 24.8864 136.161 23.6482 134.675C22.41 133.189 21.2956 131.58 20.1813 130.094C19.0669 128.484 18.0763 126.875 17.0858 125.265C16.0952 123.655 15.2285 121.922 14.3618 120.188C10.8948 113.255 8.54224 105.825 7.18023 98.1486C5.94203 90.4718 5.69439 82.6712 6.68495 74.9944C7.6755 67.3176 9.78043 59.7646 12.9997 52.7069C16.219 45.6492 20.4289 38.9629 25.5055 33.1434C26.7437 31.6576 28.1057 30.2956 29.4677 28.9336C30.8297 27.5715 32.3156 26.2095 33.8014 24.9713C35.2872 23.7331 36.7731 22.4949 38.3827 21.3806C39.9924 20.2662 41.602 19.1518 43.2117 18.0374C44.8213 17.0469 46.5548 16.0563 48.2883 15.1896C50.0217 14.3229 51.7552 13.4561 53.4887 12.5894C55.2222 11.8465 57.0795 11.1036 58.9367 10.4845C60.794 9.86537 62.6513 9.24627 64.5086 8.75099C64.8801 8.75099 65.2515 8.75099 65.4992 8.75099C65.7468 8.87481 65.9945 9.24627 66.1183 9.61773C66.1183 9.98919 66.1183 10.3606 66.1183 10.6083C65.9945 10.8559 65.623 11.1036 65.2515 11.2274C63.3942 11.7227 61.6608 12.2179 59.8035 12.837C58.07 13.4561 56.2127 14.0752 54.4792 14.8181C52.7458 15.5611 51.0123 16.4278 49.4027 17.2945C47.6692 18.1613 46.0595 19.028 44.4499 20.0186C42.8402 21.0091 41.2306 22.1235 39.7447 23.114C38.2589 24.2284 36.7731 25.3428 35.2872 26.581C33.8014 27.8192 32.4394 29.0574 31.0774 30.4194C29.7154 31.7814 28.4772 33.1434 27.239 34.5054C22.2862 40.2011 18.0763 46.5159 14.9808 53.4498C11.8854 60.3837 9.65661 67.689 8.66606 75.1182C7.6755 82.5474 7.79932 90.2242 8.9137 97.6533C10.1519 105.082 12.3806 112.388 15.7238 119.198C16.5905 120.931 17.4572 122.541 18.4478 124.151C19.4383 125.76 20.4289 127.37 21.5433 128.98C22.6577 130.589 23.772 132.075 24.8864 133.561C26.1246 135.047 27.3628 136.533 28.601 137.895C29.963 139.257 31.2012 140.619 32.687 141.857C34.049 143.095 35.5349 144.333 37.0207 145.571C38.5065 146.686 39.9924 147.924 41.602 148.915C43.2117 150.029 44.8213 151.019 46.431 152.01C48.0406 153.001 49.7741 153.867 51.5076 154.734C53.2411 155.601 54.9745 156.344 56.708 157.087C58.4415 157.83 60.2988 158.449 62.0322 158.944C63.8895 159.563 65.623 160.058 67.4803 160.43C69.3376 160.925 71.1949 161.297 73.0522 161.544C74.9095 161.792 76.7667 162.039 78.7479 162.287C80.6051 162.411 82.5863 162.535 84.4436 162.535C86.3008 162.535 88.282 162.535 90.1392 162.411C97.6922 161.916 105.245 160.306 112.427 157.706C119.608 155.106 126.295 151.391 132.362 146.686C138.429 142.104 143.753 136.533 148.211 130.342C152.668 124.151 156.259 117.341 158.735 110.035C159.354 108.178 159.85 106.445 160.345 104.587C160.84 102.73 161.212 100.873 161.583 99.0153C161.955 97.1581 162.202 95.3008 162.45 93.3197C162.697 91.4624 162.821 89.4812 162.821 87.624C162.821 85.7667 162.821 83.7856 162.821 81.9283C162.821 80.071 162.574 78.0899 162.45 76.2326C162.202 74.3753 161.955 72.3942 161.583 70.5369C161.212 68.6796 160.84 66.8223 160.345 64.965V65.0888Z" fill="#164B60"/>
<path d="M103.644 154.858C101.91 155.353 100.177 155.725 98.5669 155.972C96.8335 156.344 95.1 156.591 93.3665 156.839C91.633 157.087 89.8996 157.211 88.1661 157.211C86.4326 157.211 84.6992 157.211 82.8419 157.211C81.1084 157.211 79.3749 157.087 77.6414 156.839C75.908 156.715 74.1745 156.468 72.441 156.096C70.7076 155.725 68.9741 155.353 67.2406 154.982C65.5071 154.61 63.8975 154.115 62.164 153.496C55.4778 151.267 49.163 148.048 43.4673 143.962C37.7716 139.876 32.5712 134.923 28.2375 129.351C23.9038 123.779 20.4369 117.588 17.9605 111.026C15.4841 104.463 13.8745 97.4057 13.3792 90.4718C13.3792 88.7383 13.2554 87.0049 13.2554 85.1476C13.2554 83.4141 13.2554 81.5568 13.503 79.8234C13.6268 78.0899 13.8745 76.3564 14.1221 74.4991C14.3697 72.7656 14.7412 71.0322 15.1127 69.2987C15.4841 67.5652 15.9794 65.8318 16.4747 64.2221C16.97 62.6125 17.589 60.879 18.2081 59.2693C18.8272 57.6597 19.5702 56.05 20.3131 54.4404C21.056 52.8307 21.9227 51.2211 22.7895 49.7352C23.6562 48.2494 24.6468 46.7636 25.6373 45.2777C26.6279 43.7919 27.6184 42.4299 28.7328 40.9441C29.8472 39.582 30.9615 38.22 32.1997 36.858C33.4379 35.496 34.6761 34.2578 35.9143 33.0196C37.1525 31.7814 38.5145 30.667 39.8765 29.5527C41.2386 28.4383 42.7244 27.3239 44.0864 26.3334C45.5722 25.3428 47.0581 24.3522 48.5439 23.4855C50.0297 22.6188 51.6394 21.752 53.249 20.8853C59.5638 17.666 66.3739 15.5611 73.4316 14.3229C80.4893 13.0847 87.6708 12.9609 94.7285 13.9514C101.786 14.8182 108.72 16.7993 115.159 19.7709C121.597 22.7426 127.788 26.581 133.113 31.2861C134.475 32.4005 135.713 33.6387 137.075 35.0007C138.313 36.2389 139.551 37.6009 140.666 38.9629C141.78 40.325 142.894 41.687 144.009 43.1728C145.123 44.6586 146.114 46.1445 146.98 47.6303C147.971 49.1161 148.838 50.7258 149.704 52.2116C150.571 53.6975 151.314 55.4309 152.057 57.0406C152.8 58.6502 153.419 60.3837 154.038 61.9934C154.657 63.7268 155.152 65.3365 155.648 67.07C155.648 67.4414 155.648 67.8129 155.648 68.0605C155.524 68.3081 155.152 68.5558 154.781 68.6796C154.409 68.6796 154.038 68.6796 153.79 68.6796C153.543 68.5558 153.295 68.1843 153.171 67.8129C152.676 66.2032 152.181 64.4697 151.685 62.8601C151.19 61.2504 150.571 59.6408 149.828 58.0311C149.085 56.4215 148.342 54.9356 147.599 53.326C146.856 51.7163 145.99 50.3543 144.999 48.8685C144.132 47.3827 143.142 46.0206 142.151 44.5348C141.161 43.1728 140.046 41.8108 138.932 40.4488C137.818 39.0868 136.703 37.8486 135.465 36.6104C134.227 35.3722 132.989 34.134 131.751 33.0196C126.55 28.4383 120.731 24.5999 114.416 21.752C108.101 18.9042 101.415 16.9231 94.6047 15.9325C87.7946 14.942 80.7369 15.0658 73.9269 16.1802C67.1168 17.2945 60.4305 19.3995 54.2396 22.3711C52.6299 23.1141 51.1441 23.9808 49.6583 24.8475C48.1724 25.7143 46.6866 26.581 45.3246 27.5716C43.9626 28.5621 42.4767 29.5527 41.1147 30.667C39.7527 31.7814 38.3907 32.8958 37.1525 34.0102C35.9143 35.2484 34.6761 36.4866 33.4379 37.7247C32.1997 38.9629 31.0854 40.325 29.971 41.687C28.8566 43.049 27.8661 44.411 26.8755 45.8968C25.8849 47.3827 25.0182 48.7447 24.0277 50.2305C23.1609 51.7163 22.2942 53.326 21.5513 54.8118C20.8084 56.4215 20.0654 57.9073 19.4463 59.517C18.8272 61.1266 18.2081 62.7363 17.7129 64.4697C17.2176 66.0794 16.7223 67.8129 16.3509 69.5463C15.9794 71.2798 15.6079 72.8895 15.3603 74.6229C15.1127 76.3564 14.865 78.0899 14.7412 79.8234C14.6174 81.5568 14.4936 83.2903 14.4936 85.0238C14.4936 86.7572 14.4936 88.4907 14.4936 90.2242C14.865 97.1581 16.3509 104.092 18.8272 110.654C21.3036 117.217 24.6468 123.408 28.8566 128.98C33.0665 134.552 38.1431 139.504 43.8388 143.59C49.5345 147.676 55.7254 150.896 62.4117 153.248C64.0213 153.867 65.7548 154.363 67.4883 154.734C69.2217 155.229 70.8314 155.601 72.5648 155.848C74.2983 156.22 76.0318 156.468 77.7653 156.591C79.4987 156.839 81.2322 156.963 82.9657 156.963C84.6992 156.963 86.4326 156.963 88.1661 156.963C89.8996 156.963 91.633 156.715 93.3665 156.591C95.1 156.344 96.8335 156.096 98.5669 155.848C100.3 155.601 102.034 155.106 103.644 154.734V154.858Z" fill="#164B60"/>
<path d="M130.627 39.3344C131.742 40.4488 132.856 41.687 133.847 42.8014C134.837 44.0396 135.951 45.2778 136.818 46.516C137.809 47.7541 138.676 49.1162 139.542 50.4782C140.409 51.8402 141.276 53.2022 142.019 54.5642C142.762 55.9262 143.504 57.4121 144.124 58.8979C144.743 60.3837 145.362 61.8696 145.981 63.3554C146.476 64.8412 146.971 66.3271 147.467 67.9367C147.962 69.5464 148.333 71.0322 148.581 72.6419C149.819 78.9566 150.191 85.3953 149.572 91.71C148.953 98.0248 147.467 104.34 144.99 110.283C142.638 116.226 139.295 121.798 135.209 126.751C131.123 131.704 126.417 136.161 121.093 139.752C115.769 143.343 109.949 146.191 103.758 148.048C97.5675 149.905 91.1289 150.896 84.6903 150.896C78.2516 150.896 71.813 150.029 65.6221 148.172C59.4311 146.314 53.4878 143.59 48.1635 140C42.7155 136.409 37.8865 132.075 33.8005 127.122C29.7144 122.17 26.2475 116.598 23.7711 110.531C21.2947 104.587 19.6851 98.2725 19.066 91.71C18.4469 85.2714 18.6945 78.709 19.9327 72.3942C20.1803 70.7846 20.5518 69.1749 21.0471 67.6891C21.4185 66.0794 21.9138 64.5936 22.5329 62.9839C23.0282 61.4981 23.6473 59.8885 24.2664 58.4026C24.8855 56.9168 25.6284 55.431 26.3713 54.0689C27.1142 52.5831 27.981 51.2211 28.8477 49.8591C29.7144 48.4971 30.5812 47.1351 31.5717 45.773C32.5623 44.411 33.5528 43.1728 34.6672 41.9346C35.7816 40.6964 36.7721 39.4582 38.0103 38.3439C38.258 38.0962 38.6294 37.9724 39.0009 37.9724C39.3724 37.9724 39.7438 37.9724 39.9914 38.3439C40.2391 38.5915 40.3629 38.963 40.3629 39.3344C40.3629 39.7059 40.3629 40.0773 39.9914 40.325C38.8771 41.4394 37.8865 42.5537 36.7721 43.7919C35.7816 44.9063 34.791 46.1445 33.8005 47.3827C32.9337 48.6209 31.9432 49.9829 31.2003 51.2211C30.3335 52.5831 29.5906 53.8213 28.8477 55.3071C28.1048 56.6691 27.4857 58.0312 26.7428 59.517C26.1237 60.879 25.5046 62.3648 25.0093 63.8507C24.514 65.3365 24.0187 66.8223 23.6473 68.3082C23.2758 69.794 22.9044 71.2798 22.5329 72.8895C21.2947 79.0805 20.9233 85.3953 21.5424 91.5862C22.1615 97.7772 23.6473 103.968 25.9999 109.788C28.3524 115.607 31.5717 121.055 35.534 125.884C39.4962 130.713 44.2013 135.047 49.4017 138.514C54.6021 142.105 60.2978 144.829 66.365 146.562C72.4321 148.419 78.6231 149.41 84.9379 149.41C91.2527 149.41 97.5675 148.543 103.635 146.686C109.702 144.829 115.521 142.228 120.722 138.761C126.046 135.295 130.751 130.961 134.837 126.132C138.923 121.303 142.142 115.731 144.619 109.912C147.095 104.092 148.581 97.901 149.324 91.5862C149.943 85.2714 149.695 78.8328 148.457 72.6419C148.21 71.0322 147.838 69.5464 147.343 68.0605C146.971 66.5747 146.476 64.9651 145.981 63.4792C145.486 61.9934 144.866 60.5075 144.247 59.0217C143.628 57.5359 142.885 56.1739 142.142 54.688C141.4 53.326 140.657 51.964 139.79 50.602C138.923 49.24 138.056 48.0018 137.066 46.6398C136.075 45.4016 135.085 44.1634 134.094 42.9252C133.104 41.687 131.989 40.5726 130.875 39.4582L130.627 39.3344Z" fill="#164B60"/>
<path d="M69.4588 141.609C68.0968 141.238 66.7347 140.866 65.3727 140.371C64.0107 139.876 62.6487 139.381 61.4105 138.885C60.0485 138.266 58.8103 137.647 57.5721 137.028C56.3339 136.409 55.0957 135.666 53.8575 134.923C52.6193 134.18 51.505 133.313 50.2668 132.571C49.0286 131.828 47.9142 130.837 46.9236 129.97C45.8093 128.98 44.8187 128.113 43.7043 127.122C42.59 126.132 41.7232 125.141 40.7327 124.027C36.8943 119.693 33.7988 114.864 31.3224 109.664C28.846 104.464 27.2363 98.8916 26.4934 93.1959C25.7505 87.5002 25.7505 81.6807 26.7411 75.985C27.7316 70.2893 29.3413 64.7174 31.9415 59.517C34.4179 54.3166 37.761 49.4876 41.7232 45.2778C45.6854 41.0679 50.2668 37.3533 55.2195 34.5055C60.1723 31.5338 65.6204 29.4289 71.3161 28.0669C77.0118 26.7049 82.8313 26.2096 88.6508 26.581C94.4703 26.9525 100.166 28.1907 105.614 30.1718C111.062 32.1529 116.263 35.0008 120.844 38.5915C125.549 42.0585 129.635 46.3922 132.978 51.0973C136.445 55.8024 139.169 61.0029 141.026 66.5747C141.522 67.9368 141.893 69.2988 142.265 70.7846C142.636 72.1466 143.008 73.6325 143.255 75.1183C143.503 76.6041 143.75 77.9661 143.874 79.452C143.998 80.9378 144.122 82.4236 144.246 83.7857C144.246 85.2715 144.246 86.7573 144.246 88.1193C144.246 89.6052 144.122 91.091 143.874 92.453C143.75 93.9389 143.503 95.3009 143.255 96.7867C143.008 98.2725 142.636 99.6345 142.265 101.12C142.265 101.492 141.893 101.739 141.646 101.987C141.398 102.235 141.026 102.235 140.655 102.111C140.283 102.111 140.036 101.739 139.788 101.492C139.541 101.244 139.541 100.873 139.664 100.501C140.036 99.1393 140.283 97.7773 140.655 96.4153C141.026 95.0532 141.15 93.6912 141.274 92.3292C141.398 90.9672 141.522 89.4813 141.646 88.1193C141.646 86.7573 141.646 85.2715 141.646 83.9095C141.646 82.5475 141.522 81.0616 141.398 79.6996C141.274 78.3376 141.026 76.9756 140.779 75.4897C140.531 74.1277 140.283 72.7657 139.912 71.4037C139.541 70.0417 139.169 68.6797 138.674 67.3177C136.94 61.9934 134.34 56.9168 131.121 52.3355C127.902 47.7542 123.939 43.6681 119.482 40.2012C115.024 36.7342 110.072 34.0102 104.871 31.9053C99.5469 29.9242 94.0988 28.686 88.4031 28.3145C82.8313 27.943 77.1356 28.3145 71.5637 29.6765C66.1156 30.9147 60.6676 33.0197 55.8386 35.8675C50.8859 38.7153 46.4284 42.1823 42.4661 46.2683C38.5039 50.3544 35.2846 55.0595 32.6844 60.1361C30.0842 65.2127 28.3507 70.6608 27.3602 76.2327C26.3696 81.8045 26.2458 87.6241 26.9887 93.1959C27.7316 98.8916 29.2175 104.34 31.57 109.54C33.9226 114.741 37.0181 119.569 40.7327 123.903C41.7232 125.018 42.59 126.008 43.7043 126.999C44.6949 127.989 45.8093 128.98 46.7998 129.97C47.9142 130.961 49.0286 131.828 50.1429 132.694C51.2573 133.561 52.4955 134.304 53.7337 135.171C54.9719 135.914 56.2101 136.657 57.4483 137.276C58.6865 137.895 60.0485 138.514 61.2867 139.133C62.6487 139.752 63.8869 140.247 65.2489 140.743C66.6109 141.238 67.9729 141.609 69.335 141.981L69.4588 141.609Z" fill="#164B60"/>
<path d="M97.9442 35.2486C99.1824 35.62 100.421 35.9915 101.535 36.3629C102.773 36.7344 103.888 37.2297 105.126 37.725C106.24 38.2202 107.478 38.7155 108.593 39.3346C109.707 39.9537 110.821 40.5728 111.936 41.1919C113.05 41.811 114.041 42.5539 115.155 43.2968C116.269 44.0397 117.26 44.7827 118.127 45.6494C119.117 46.5161 119.984 47.3829 120.975 48.2496C121.841 49.1163 122.832 50.1069 123.575 50.9736C126.918 54.812 129.766 59.1457 131.871 63.727C133.976 68.4322 135.462 73.385 136.204 78.4616C136.947 83.5382 136.824 88.7386 136.081 93.8152C135.214 98.8918 133.728 103.845 131.499 108.426C129.271 113.007 126.299 117.341 122.832 121.055C119.365 124.77 115.279 128.113 110.821 130.713C106.364 133.314 101.535 135.295 96.4584 136.409C91.3818 137.647 86.1814 138.143 81.1048 137.771C75.9043 137.523 70.8277 136.409 65.9988 134.552C61.1698 132.694 56.5885 130.218 52.3786 127.123C48.2926 124.027 44.578 120.189 41.4825 115.979C38.387 111.769 36.0344 107.064 34.301 102.235C33.9295 100.997 33.5581 99.7585 33.1866 98.5203C32.8151 97.2821 32.5675 96.0439 32.3199 94.6819C32.0722 93.4437 31.8246 92.0817 31.7008 90.8435C31.5769 89.6053 31.4531 88.2433 31.4531 87.0051C31.4531 85.6431 31.4531 84.4049 31.4531 83.0429C31.4531 81.6809 31.5769 80.4427 31.7008 79.2045C31.8246 77.9663 32.0722 76.6043 32.3199 75.3661C32.5675 74.1279 32.8151 72.7659 33.1866 71.5277C33.1866 71.1562 33.5581 70.9086 33.8057 70.6609C34.0533 70.5371 34.4248 70.4133 34.7963 70.5371C35.1677 70.5371 35.4154 70.9086 35.663 71.1562C35.7868 71.4038 35.9106 71.7753 35.7868 72.1468C35.4154 73.385 35.1677 74.4993 34.9201 75.7375C34.6724 76.9757 34.4248 78.2139 34.301 79.4521C34.1772 80.6903 34.0533 81.9285 34.0533 83.1667C34.0533 84.4049 34.0533 85.6431 34.0533 86.8813C34.0533 88.1195 34.0533 89.3577 34.301 90.5959C34.301 91.8341 34.5486 93.0723 34.7963 94.3105C35.0439 95.5487 35.2915 96.7868 35.5392 97.9012C35.7868 99.1394 36.1583 100.254 36.5297 101.492C38.1394 106.197 40.3681 110.655 43.216 114.741C46.0638 118.827 49.5308 122.417 53.493 125.513C57.4552 128.608 61.7889 131.085 66.494 132.818C71.1992 134.552 76.0282 135.666 81.1048 136.038C86.0575 136.409 91.1341 136.038 95.9631 134.923C100.792 133.809 105.621 131.952 109.955 129.475C114.288 126.999 118.374 123.903 121.718 120.189C125.184 116.598 128.156 112.388 130.385 107.931C132.614 103.473 134.223 98.5203 135.09 93.5675C135.957 88.6148 136.081 83.5382 135.462 78.4616C134.842 73.385 133.48 68.556 131.375 63.8509C129.271 59.2695 126.547 54.9359 123.203 51.0975C122.337 50.1069 121.47 49.2402 120.603 48.3734C119.736 47.5067 118.746 46.64 117.879 45.7732C116.889 44.9065 115.898 44.1636 114.907 43.4207C113.917 42.6777 112.803 41.9348 111.812 41.3157C110.698 40.5728 109.583 39.9537 108.469 39.4584C107.354 38.9631 106.24 38.344 105.002 37.8488C103.888 37.3535 102.649 36.8582 101.411 36.4868C100.173 36.1153 99.0586 35.7438 97.8204 35.3724L97.9442 35.2486Z" fill="#164B60"/>
<path d="M52.2948 85.6784H48.4731V67.2286H52.2948V85.6784Z" fill="#164B60"/>
<path d="M75.493 67.2286V85.6784H70.4852L60.6014 70.655H60.3378V85.6784H56.5161V67.2286H61.5239L71.4077 82.252H71.6713V67.2286H75.493Z" fill="#164B60"/>
<path d="M83.5411 69.2054V75.531H93.1614V77.5078H83.5411V85.6784H79.7194V67.2286H96.3242V69.2054H83.5411Z" fill="#164B60"/>
<path d="M107.919 68.5465C107.023 68.5465 106.18 68.7046 105.389 69.0209C104.616 69.3372 103.939 69.8204 103.359 70.4705C102.78 71.1206 102.314 71.9465 101.963 72.9481C101.629 73.932 101.462 75.1005 101.462 76.4535C101.462 77.8065 101.629 78.9838 101.963 79.9853C102.314 80.9693 102.78 81.7864 103.359 82.4365C103.939 83.0867 104.616 83.5699 105.389 83.8862C106.18 84.2024 107.023 84.3606 107.919 84.3606C108.815 84.3606 109.65 84.2024 110.423 83.8862C111.214 83.5699 111.899 83.0867 112.479 82.4365C113.059 81.7864 113.516 80.9693 113.85 79.9853C114.201 78.9838 114.377 77.8065 114.377 76.4535C114.377 75.1005 114.201 73.932 113.85 72.9481C113.516 71.9465 113.059 71.1206 112.479 70.4705C111.899 69.8204 111.214 69.3372 110.423 69.0209C109.65 68.7046 108.815 68.5465 107.919 68.5465ZM107.919 66.7015C109.501 66.7015 110.933 66.9123 112.215 67.334C113.516 67.7558 114.623 68.3795 115.536 69.2054C116.468 70.0312 117.188 71.0504 117.698 72.2628C118.207 73.4752 118.462 74.8721 118.462 76.4535C118.462 78.0349 118.207 79.4319 117.698 80.6443C117.188 81.8567 116.468 82.8758 115.536 83.7017C114.623 84.5275 113.516 85.1513 112.215 85.573C110.933 85.9947 109.501 86.2056 107.919 86.2056C106.338 86.2056 104.897 85.9947 103.597 85.573C102.296 85.1513 101.181 84.5275 100.249 83.7017C99.3357 82.8758 98.624 81.8567 98.1145 80.6443C97.6225 79.4319 97.3765 78.0349 97.3765 76.4535C97.3765 74.8721 97.6225 73.4752 98.1145 72.2628C98.624 71.0504 99.3357 70.0312 100.249 69.2054C101.181 68.3795 102.296 67.7558 103.597 67.334C104.897 66.9123 106.338 66.7015 107.919 66.7015Z" fill="#164B60"/>
<path d="M58.3333 92.5787L49.9993 102.257H58.5125V103.601H46.8628V102.078L55.1968 92.3994H47.042V91.0552H58.3333V92.5787Z" fill="#164B60"/>
<path d="M64.0637 99.2101H69.6197L66.9313 92.5787H66.7521L64.0637 99.2101ZM68.9028 91.0552L74.0108 103.601H71.4299L70.247 100.554H63.4364L62.2535 103.601H59.6726L64.7806 91.0552H68.9028Z" fill="#164B60"/>
<path d="M83.8739 97.2386L88.6234 103.601H85.6661L81.5439 98.0451H78.4074V103.601H75.8086V91.0552H78.4074V96.7009H81.3647L85.4869 91.0552H88.3545L83.8739 97.2386Z" fill="#164B60"/>
<path d="M96.3322 91.9514C95.7229 91.9514 95.1493 92.0589 94.6117 92.274C94.0859 92.4891 93.6259 92.8176 93.2316 93.2597C92.8373 93.7018 92.5207 94.2634 92.2817 94.9445C92.0547 95.6136 91.9412 96.4081 91.9412 97.3282C91.9412 98.2482 92.0547 99.0488 92.2817 99.7298C92.5207 100.399 92.8373 100.955 93.2316 101.397C93.6259 101.839 94.0859 102.167 94.6117 102.382C95.1493 102.597 95.7229 102.705 96.3322 102.705C96.9416 102.705 97.5092 102.597 98.0349 102.382C98.5726 102.167 99.0386 101.839 99.4329 101.397C99.8272 100.955 100.138 100.399 100.365 99.7298C100.604 99.0488 100.723 98.2482 100.723 97.3282C100.723 96.4081 100.604 95.6136 100.365 94.9445C100.138 94.2634 99.8272 93.7018 99.4329 93.2597C99.0386 92.8176 98.5726 92.4891 98.0349 92.274C97.5092 92.0589 96.9416 91.9514 96.3322 91.9514ZM96.3322 90.6968C97.4076 90.6968 98.3814 90.8402 99.2536 91.1269C100.138 91.4137 100.891 91.8379 101.512 92.3994C102.145 92.961 102.635 93.654 102.982 94.4785C103.328 95.3029 103.501 96.2528 103.501 97.3282C103.501 98.4035 103.328 99.3534 102.982 100.178C102.635 101.002 102.145 101.695 101.512 102.257C100.891 102.818 100.138 103.243 99.2536 103.529C98.3814 103.816 97.4076 103.96 96.3322 103.96C95.2569 103.96 94.2771 103.816 93.3929 103.529C92.5087 103.243 91.75 102.818 91.1167 102.257C90.4954 101.695 90.0115 101.002 89.665 100.178C89.3304 99.3534 89.1632 98.4035 89.1632 97.3282C89.1632 96.2528 89.3304 95.3029 89.665 94.4785C90.0115 93.654 90.4954 92.961 91.1167 92.3994C91.75 91.8379 92.5087 91.4137 93.3929 91.1269C94.2771 90.8402 95.2569 90.6968 96.3322 90.6968Z" fill="#164B60"/>
<path d="M118.922 91.0552V103.601H115.517L108.796 93.3852H108.616V103.601H106.017V91.0552H109.423L116.144 101.271H116.323V91.0552H118.922Z" fill="#164B60"/>
</svg>
