<svg width="150" height="51" viewBox="0 0 150 51" fill="none" xmlns="http://www.w3.org/2000/svg">
<g clip-path="url(#clip0_677_1352)">
<path fill-rule="evenodd" clip-rule="evenodd" d="M8.69715 50.0114V0.0835114H0V50.0114H8.69715Z" fill="#164B60"/>
<path fill-rule="evenodd" clip-rule="evenodd" d="M17.2085 14.7977V49.9963H44.1161L17.2085 14.7977Z" fill="#164B60"/>
<path fill-rule="evenodd" clip-rule="evenodd" d="M17.2085 0L44.1161 34.0939V0H17.2085Z" fill="#164B60"/>
</g>
<path d="M55.8857 49.1935V46.9401L68.246 33.9328L70.1425 34.9145H55.975V32.4603H71.3027V34.6914L58.92 47.7433L57.2913 46.7393H71.3696V49.1935H55.8857Z" fill="#164B60"/>
<path d="M76.2893 45.356V42.9241H87.9803V45.356H76.2893ZM84.0536 32.4603L92.0855 49.1935H88.9397L81.644 33.5758H82.7818L75.4861 49.1935H72.3403L80.3723 32.4603H84.0536Z" fill="#164B60"/>
<path d="M94.1251 49.1935V32.4603H97.0701V46.717L96.1777 46.1592L107.378 32.4603H110.568L96.7578 49.1935H94.1251ZM102.09 40.7823L104.165 38.752L110.814 49.1935H107.445L102.09 40.7823Z" fill="#164B60"/>
<path d="M120.388 49.5059C118.484 49.5059 116.81 49.1415 115.368 48.4126C113.925 47.6838 112.802 46.6724 111.999 45.3783C111.195 44.0694 110.794 42.5523 110.794 40.8269C110.794 39.1015 111.195 37.5918 111.999 36.2978C112.802 34.9888 113.925 33.97 115.368 33.2411C116.81 32.5123 118.484 32.1479 120.388 32.1479C122.291 32.1479 123.965 32.5123 125.408 33.2411C126.85 33.97 127.973 34.9888 128.777 36.2978C129.58 37.5918 129.981 39.1015 129.981 40.8269C129.981 42.5523 129.58 44.0694 128.777 45.3783C127.973 46.6724 126.85 47.6838 125.408 48.4126C123.965 49.1415 122.291 49.5059 120.388 49.5059ZM120.388 46.8732C121.741 46.8732 122.909 46.6277 123.89 46.1369C124.872 45.6461 125.631 44.947 126.166 44.0397C126.716 43.1324 126.992 42.0614 126.992 40.8269C126.992 39.5923 126.716 38.5214 126.166 37.6141C125.631 36.7068 124.872 36.0077 123.89 35.5169C122.909 35.026 121.741 34.7806 120.388 34.7806C119.049 34.7806 117.881 35.026 116.885 35.5169C115.903 36.0077 115.137 36.7068 114.587 37.6141C114.051 38.5214 113.784 39.5923 113.784 40.8269C113.784 42.0614 114.051 43.1324 114.587 44.0397C115.137 44.947 115.903 45.6461 116.885 46.1369C117.881 46.6277 119.049 46.8732 120.388 46.8732Z" fill="#164B60"/>
<path d="M148.349 47.4086L147.144 47.5425V32.4603H150V49.1935H146.251L134.516 34.1113L135.698 33.9774V49.1935H132.843V32.4603H136.68L148.349 47.4086Z" fill="#164B60"/>
<path d="M55.8857 0.472633H60.342V25.7923H55.8857V0.472633Z" fill="#164B60"/>
<path d="M89.4699 23.0915L87.6469 23.2941V0.472633H91.9681V25.7923H86.2965L68.539 2.97084L70.3282 2.76828V25.7923H66.007V0.472633H71.8136L89.4699 23.0915Z" fill="#164B60"/>
<path d="M99.7842 11.5458H117.981V15.4619H99.7842V11.5458ZM118.521 0.472633V4.38874H99.6492L102.08 1.85677V25.7923H97.6236V0.472633H118.521Z" fill="#164B60"/>
<path d="M135.483 26.2649C132.602 26.2649 130.07 25.7135 127.887 24.6107C125.704 23.5079 124.005 21.9774 122.789 20.0194C121.574 18.0388 120.966 15.7432 120.966 13.1325C120.966 10.5217 121.574 8.23732 122.789 6.27927C124.005 4.29871 125.704 2.75703 127.887 1.65422C130.07 0.551406 132.602 0 135.483 0C138.364 0 140.896 0.551406 143.079 1.65422C145.262 2.75703 146.961 4.29871 148.177 6.27927C149.392 8.23732 150 10.5217 150 13.1325C150 15.7432 149.392 18.0388 148.177 20.0194C146.961 21.9774 145.262 23.5079 143.079 24.6107C140.896 25.7135 138.364 26.2649 135.483 26.2649ZM135.483 22.2813C137.531 22.2813 139.298 21.9099 140.783 21.1672C142.269 20.4245 143.417 19.3667 144.227 17.9938C145.06 16.6209 145.476 15.0005 145.476 13.1325C145.476 11.2644 145.06 9.64397 144.227 8.27108C143.417 6.8982 142.269 5.8404 140.783 5.09769C139.298 4.35498 137.531 3.98362 135.483 3.98362C133.458 3.98362 131.691 4.35498 130.183 5.09769C128.697 5.8404 127.538 6.8982 126.706 8.27108C125.895 9.64397 125.49 11.2644 125.49 13.1325C125.49 15.0005 125.895 16.6209 126.706 17.9938C127.538 19.3667 128.697 20.4245 130.183 21.1672C131.691 21.9099 133.458 22.2813 135.483 22.2813Z" fill="#164B60"/>
<defs>
<clipPath id="clip0_677_1352">
<rect width="44.1159" height="50.0115" fill="white"/>
</clipPath>
</defs>
</svg>
