<svg width="25" height="11" viewBox="0 0 25 11" fill="none" xmlns="http://www.w3.org/2000/svg">
<path d="M6.12549 0.757812H7.7124V6.93408C7.7124 7.63656 7.56006 8.22477 7.25537 8.69873C6.95068 9.17269 6.53597 9.53027 6.01123 9.77148C5.49072 10.0085 4.90885 10.127 4.26562 10.127C3.60124 10.127 3.00879 10.0085 2.48828 9.77148C1.96777 9.53027 1.55729 9.17269 1.25684 8.69873C0.960612 8.22477 0.8125 7.63656 0.8125 6.93408V0.757812H2.39941V6.93408C2.39941 7.37842 2.47559 7.74447 2.62793 8.03223C2.78027 8.31576 2.99609 8.52523 3.27539 8.66064C3.55469 8.79606 3.88477 8.86377 4.26562 8.86377C4.64648 8.86377 4.97445 8.79606 5.24951 8.66064C5.52881 8.52523 5.74463 8.31576 5.89697 8.03223C6.04932 7.74447 6.12549 7.37842 6.12549 6.93408V0.757812ZM14.3076 7.61963C14.3076 7.4292 14.278 7.25993 14.2188 7.11182C14.1637 6.9637 14.0643 6.82829 13.9204 6.70557C13.7765 6.58285 13.5734 6.46436 13.311 6.3501C13.0529 6.23161 12.7228 6.111 12.3208 5.98828C11.8807 5.85286 11.4744 5.70264 11.1021 5.5376C10.7339 5.36833 10.4123 5.17367 10.1372 4.95361C9.86214 4.72933 9.64844 4.47331 9.49609 4.18555C9.34375 3.89355 9.26758 3.55713 9.26758 3.17627C9.26758 2.79964 9.34587 2.45687 9.50244 2.14795C9.66325 1.83903 9.88965 1.57243 10.1816 1.34814C10.4779 1.11963 10.827 0.94401 11.229 0.821289C11.631 0.694336 12.0754 0.630859 12.562 0.630859C13.2476 0.630859 13.8379 0.757812 14.333 1.01172C14.8324 1.26562 15.2153 1.60628 15.4819 2.03369C15.7528 2.4611 15.8882 2.93294 15.8882 3.44922H14.3076C14.3076 3.14453 14.242 2.87581 14.1108 2.64307C13.9839 2.40609 13.7892 2.21989 13.5269 2.08447C13.2687 1.94906 12.9408 1.88135 12.543 1.88135C12.1663 1.88135 11.8532 1.93848 11.6035 2.05273C11.3538 2.16699 11.1676 2.32145 11.0449 2.51611C10.9222 2.71077 10.8608 2.93083 10.8608 3.17627C10.8608 3.34977 10.901 3.50846 10.9814 3.65234C11.0618 3.79199 11.1846 3.92318 11.3496 4.0459C11.5146 4.16439 11.722 4.27653 11.9717 4.38232C12.2214 4.48812 12.5155 4.58968 12.854 4.68701C13.366 4.83936 13.8125 5.00863 14.1934 5.19482C14.5742 5.37679 14.8916 5.58415 15.1455 5.81689C15.3994 6.04964 15.5898 6.31413 15.7168 6.61035C15.8438 6.90234 15.9072 7.23454 15.9072 7.60693C15.9072 7.99626 15.8289 8.34749 15.6724 8.66064C15.5158 8.96956 15.2915 9.23405 14.9995 9.4541C14.7118 9.66992 14.3647 9.83708 13.9585 9.95557C13.5565 10.0698 13.1079 10.127 12.6128 10.127C12.1685 10.127 11.7305 10.0677 11.2988 9.94922C10.8714 9.83073 10.4821 9.65088 10.1309 9.40967C9.77962 9.16423 9.50033 8.85954 9.29297 8.49561C9.08561 8.12744 8.98193 7.69792 8.98193 7.20703H10.5752C10.5752 7.50749 10.626 7.76351 10.7275 7.9751C10.8333 8.18669 10.9793 8.36019 11.1655 8.49561C11.3517 8.62679 11.5675 8.72412 11.813 8.7876C12.0627 8.85107 12.3293 8.88281 12.6128 8.88281C12.9852 8.88281 13.2962 8.82992 13.5459 8.72412C13.7998 8.61833 13.9902 8.47021 14.1172 8.27979C14.2441 8.08936 14.3076 7.8693 14.3076 7.61963ZM20.0015 10H18.0273L18.04 8.73682H20.0015C20.5728 8.73682 21.0509 8.61198 21.436 8.3623C21.8254 8.11263 22.1174 7.75505 22.312 7.28955C22.5109 6.82406 22.6104 6.26969 22.6104 5.62646V5.125C22.6104 4.62565 22.5532 4.18343 22.439 3.79834C22.3289 3.41325 22.1639 3.08952 21.9438 2.82715C21.728 2.56478 21.4614 2.36589 21.144 2.23047C20.8309 2.09505 20.4691 2.02734 20.0586 2.02734H17.9893V0.757812H20.0586C20.6722 0.757812 21.2329 0.861491 21.7407 1.06885C22.2485 1.27197 22.6865 1.56608 23.0547 1.95117C23.4271 2.33626 23.7127 2.79753 23.9116 3.33496C24.1105 3.8724 24.21 4.47331 24.21 5.1377V5.62646C24.21 6.29085 24.1105 6.89176 23.9116 7.4292C23.7127 7.96663 23.4271 8.4279 23.0547 8.81299C22.6823 9.19385 22.238 9.48796 21.7217 9.69531C21.2096 9.89844 20.6362 10 20.0015 10ZM18.9097 0.757812V10H17.3164V0.757812H18.9097Z" fill="#164B60"/>
</svg>
