<svg width="34" height="33" viewBox="0 0 34 33" fill="none" xmlns="http://www.w3.org/2000/svg">
<rect x="0.0302734" y="0.5" width="33.2308" height="32" fill="#164B60"/>
<g clip-path="url(#clip0_160_1002)">
<path d="M16.6407 11.4546C18.2848 11.4546 18.4778 11.4619 19.1276 11.4912C19.7286 11.5181 20.0535 11.6182 20.2709 11.7038C20.5592 11.8161 20.7644 11.948 20.9794 12.163C21.1944 12.378 21.3287 12.5832 21.4387 12.8715C21.5217 13.0889 21.6243 13.4138 21.6512 14.0148C21.6805 14.6646 21.6879 14.8576 21.6879 16.5017C21.6879 18.1459 21.6805 18.3389 21.6512 18.9887C21.6243 19.5897 21.5242 19.9146 21.4387 20.132C21.3263 20.4203 21.1944 20.6255 20.9794 20.8405C20.7644 21.0554 20.5592 21.1898 20.2709 21.2997C20.0535 21.3828 19.7286 21.4854 19.1276 21.5123C18.4778 21.5416 18.2848 21.5489 16.6407 21.5489C14.9965 21.5489 14.8036 21.5416 14.1537 21.5123C13.5527 21.4854 13.2278 21.3852 13.0104 21.2997C12.7221 21.1874 12.5169 21.0554 12.3019 20.8405C12.087 20.6255 11.9526 20.4203 11.8427 20.132C11.7596 19.9146 11.657 19.5897 11.6301 18.9887C11.6008 18.3389 11.5935 18.1459 11.5935 16.5017C11.5935 14.8576 11.6008 14.6646 11.6301 14.0148C11.657 13.4138 11.7572 13.0889 11.8427 12.8715C11.955 12.5832 12.087 12.378 12.3019 12.163C12.5169 11.948 12.7221 11.8137 13.0104 11.7038C13.2278 11.6207 13.5527 11.5181 14.1537 11.4912C14.8036 11.4595 14.999 11.4546 16.6407 11.4546ZM16.6407 10.3455C14.9697 10.3455 14.7596 10.3528 14.1024 10.3821C13.4477 10.4114 13.0006 10.5165 12.6098 10.6679C12.2042 10.8243 11.8622 11.0368 11.5202 11.3788C11.1782 11.7209 10.9681 12.0653 10.8093 12.4684C10.6578 12.8593 10.5528 13.3063 10.5235 13.9635C10.4941 14.6182 10.4868 14.8283 10.4868 16.4993C10.4868 18.1703 10.4941 18.3804 10.5235 19.0376C10.5528 19.6923 10.6578 20.1393 10.8093 20.5326C10.9656 20.9382 11.1782 21.2802 11.5202 21.6222C11.8622 21.9642 12.2067 22.1743 12.6098 22.3331C13.0006 22.4846 13.4477 22.5896 14.1049 22.6189C14.762 22.6483 14.9697 22.6556 16.6431 22.6556C18.3165 22.6556 18.5242 22.6483 19.1814 22.6189C19.8361 22.5896 20.2831 22.4846 20.6765 22.3331C21.082 22.1768 21.424 21.9642 21.766 21.6222C22.108 21.2802 22.3181 20.9357 22.4769 20.5326C22.6284 20.1418 22.7334 19.6947 22.7628 19.0376C22.7921 18.3804 22.7994 18.1727 22.7994 16.4993C22.7994 14.8259 22.7921 14.6182 22.7628 13.9611C22.7334 13.3063 22.6284 12.8593 22.4769 12.466C22.3206 12.0604 22.108 11.7184 21.766 11.3764C21.424 11.0344 21.0796 10.8243 20.6765 10.6655C20.2856 10.514 19.8385 10.409 19.1814 10.3797C18.5218 10.3528 18.3117 10.3455 16.6407 10.3455Z" fill="white"/>
<path d="M16.6407 11.4546C18.2848 11.4546 18.4778 11.4619 19.1276 11.4912C19.7286 11.5181 20.0535 11.6182 20.2709 11.7038C20.5592 11.8161 20.7644 11.948 20.9794 12.163C21.1944 12.378 21.3287 12.5832 21.4387 12.8715C21.5217 13.0889 21.6243 13.4138 21.6512 14.0148C21.6805 14.6646 21.6879 14.8576 21.6879 16.5017C21.6879 18.1459 21.6805 18.3389 21.6512 18.9887C21.6243 19.5897 21.5242 19.9146 21.4387 20.132C21.3263 20.4203 21.1944 20.6255 20.9794 20.8405C20.7644 21.0554 20.5592 21.1898 20.2709 21.2997C20.0535 21.3828 19.7286 21.4854 19.1276 21.5123C18.4778 21.5416 18.2848 21.5489 16.6407 21.5489C14.9965 21.5489 14.8036 21.5416 14.1537 21.5123C13.5527 21.4854 13.2278 21.3852 13.0104 21.2997C12.7221 21.1874 12.5169 21.0554 12.3019 20.8405C12.087 20.6255 11.9526 20.4203 11.8427 20.132C11.7596 19.9146 11.657 19.5897 11.6301 18.9887C11.6008 18.3389 11.5935 18.1459 11.5935 16.5017C11.5935 14.8576 11.6008 14.6646 11.6301 14.0148C11.657 13.4138 11.7572 13.0889 11.8427 12.8715C11.955 12.5832 12.087 12.378 12.3019 12.163C12.5169 11.948 12.7221 11.8137 13.0104 11.7038C13.2278 11.6207 13.5527 11.5181 14.1537 11.4912C14.8036 11.4595 14.999 11.4546 16.6407 11.4546Z" fill="white"/>
<path d="M16.6407 13.3406C14.8964 13.3406 13.4795 14.7551 13.4795 16.5018C13.4795 18.2485 14.894 19.663 16.6407 19.663C18.3874 19.663 19.8019 18.2485 19.8019 16.5018C19.8019 14.7551 18.3874 13.3406 16.6407 13.3406ZM16.6407 18.5514C15.5072 18.5514 14.5886 17.6329 14.5886 16.4993C14.5886 15.3658 15.5072 14.4472 16.6407 14.4472C17.7742 14.4472 18.6928 15.3658 18.6928 16.4993C18.6928 17.6329 17.7742 18.5514 16.6407 18.5514Z" fill="#164B60"/>
<path d="M19.9263 13.9514C20.3337 13.9514 20.664 13.6211 20.664 13.2136C20.664 12.8061 20.3337 12.4758 19.9263 12.4758C19.5188 12.4758 19.1885 12.8061 19.1885 13.2136C19.1885 13.6211 19.5188 13.9514 19.9263 13.9514Z" fill="#164B60"/>
</g>
<defs>
<clipPath id="clip0_160_1002">
<rect width="12.3077" height="12.3077" fill="white" transform="translate(10.4868 10.3455)"/>
</clipPath>
</defs>
</svg>
