<svg width="34" height="33" viewBox="0 0 34 33" fill="none" xmlns="http://www.w3.org/2000/svg">
<rect x="0.67627" y="0.5" width="32.6154" height="32" fill="#164B60"/>
<g clip-path="url(#clip0_160_1014)">
<path d="M19.8047 10.3455H17.5736V19.1481C17.5736 20.197 16.7155 21.0585 15.6477 21.0585C14.5798 21.0585 13.7218 20.197 13.7218 19.1481C13.7218 18.118 14.5608 17.2752 15.5905 17.2378V15.0277C13.3213 15.0652 11.4907 16.8819 11.4907 19.1481C11.4907 21.4331 13.3594 23.2685 15.6668 23.2685C17.974 23.2685 19.8428 21.4144 19.8428 19.1481V14.6344C20.6818 15.2338 21.7115 15.5896 22.7984 15.6083V13.3983C21.1204 13.3421 19.8047 11.9936 19.8047 10.3455Z" fill="white"/>
</g>
<defs>
<clipPath id="clip0_160_1014">
<rect width="12.9231" height="12.9231" fill="white" transform="translate(10.5215 10.3455)"/>
</clipPath>
</defs>
</svg>
