<svg width="38" height="38" viewBox="0 0 38 38" fill="none" xmlns="http://www.w3.org/2000/svg">
<path d="M28.9494 24.7588C28.9019 24.4652 28.7178 24.2143 28.4422 24.0652L24.3641 21.6625L24.3305 21.6437C24.1595 21.5581 23.9707 21.5142 23.7795 21.5157C23.4378 21.5157 23.1115 21.6451 22.8851 21.8721L21.6814 23.0764C21.6299 23.1253 21.4621 23.1961 21.4112 23.1987C21.3972 23.1975 20.0106 23.0977 17.458 20.5447C14.9098 17.9972 14.8017 16.6063 14.8009 16.6063C14.8023 16.5352 14.8723 16.3679 14.9221 16.3162L15.9485 15.29C16.3101 14.9276 16.4185 14.3268 16.204 13.8614L13.9372 9.59609C13.7725 9.25699 13.4524 9.04761 13.0974 9.04761C12.8462 9.04761 12.6038 9.15173 12.4144 9.34091L9.61646 12.1326C9.34819 12.3994 9.11719 12.8659 9.06684 13.2415C9.04237 13.421 8.54595 17.7059 14.4205 23.5813C19.4078 28.568 23.2967 28.9555 24.3706 28.9555C24.5014 28.9572 24.6322 28.9504 24.7621 28.9353C25.1365 28.8852 25.6025 28.6548 25.869 28.3877L28.6646 25.5923C28.8928 25.363 28.9969 25.0601 28.9494 24.7588Z" fill="#164B60"/>
</svg>
