<svg width="38" height="38" viewBox="0 0 38 38" fill="none" xmlns="http://www.w3.org/2000/svg">
<path d="M26.0367 24.2278L18.9993 31.2652L11.9618 24.2278C10.57 22.8359 9.62211 21.0625 9.2381 19.132C8.8541 17.2014 9.0512 15.2003 9.80447 13.3818C10.5577 11.5632 11.8334 10.0089 13.47 8.91531C15.1067 7.82173 17.0309 7.23804 18.9993 7.23804C20.9676 7.23804 22.8918 7.82173 24.5285 8.91531C26.1651 10.0089 27.4408 11.5632 28.194 13.3818C28.9473 15.2003 29.1444 17.2014 28.7604 19.132C28.3764 21.0625 27.4285 22.8359 26.0367 24.2278ZM18.9993 21.6136C20.1724 21.6136 21.2975 21.1476 22.127 20.3181C22.9565 19.4885 23.4225 18.3635 23.4225 17.1903C23.4225 16.0172 22.9565 14.8921 22.127 14.0626C21.2975 13.2331 20.1724 12.767 18.9993 12.767C17.8261 12.767 16.7011 13.2331 15.8715 14.0626C15.042 14.8921 14.576 16.0172 14.576 17.1903C14.576 18.3635 15.042 19.4885 15.8715 20.3181C16.7011 21.1476 17.8261 21.6136 18.9993 21.6136ZM18.9993 19.402C18.4127 19.402 17.8502 19.169 17.4354 18.7542C17.0206 18.3394 16.7876 17.7769 16.7876 17.1903C16.7876 16.6038 17.0206 16.0412 17.4354 15.6265C17.8502 15.2117 18.4127 14.9787 18.9993 14.9787C19.5858 14.9787 20.1484 15.2117 20.5631 15.6265C20.9779 16.0412 21.2109 16.6038 21.2109 17.1903C21.2109 17.7769 20.9779 18.3394 20.5631 18.7542C20.1484 19.169 19.5858 19.402 18.9993 19.402Z" fill="#164B60"/>
</svg>
