<svg width="30" height="31" viewBox="0 0 30 31" fill="none" xmlns="http://www.w3.org/2000/svg">
<circle cx="15" cy="15.5" r="15" fill="#4E6297"/>
<path d="M21.75 10.8651C21.75 9.74203 20.7591 8.7511 19.636 8.7511H11.114C9.99093 8.7511 9 9.74203 9 10.8651V19.3871C9 20.5102 9.99093 21.5011 11.114 21.5011H15.408V16.6786H13.8225V14.5646H15.408V13.7058C15.408 12.2524 16.465 10.9972 17.7863 10.9972H19.5039V13.1112H17.7863C17.5881 13.1112 17.3899 13.3094 17.3899 13.7058V14.5646H19.5039V16.6786H17.3899V21.5011H19.636C20.7591 21.5011 21.75 20.5102 21.75 19.3871V10.8651Z" fill="white"/>
</svg>
