<svg width="30" height="31" viewBox="0 0 30 31" fill="none" xmlns="http://www.w3.org/2000/svg">
<circle cx="15" cy="15.5" r="15" fill="#48C95F"/>
<path d="M20.9451 9.54578C19.4634 8.06921 17.4878 7.2489 15.4024 7.2489C11.0671 7.2489 7.55488 10.7489 7.55488 15.0692C7.55488 16.4364 7.93902 17.8036 8.59756 18.952L7.5 22.9989L11.6707 21.9052C12.8232 22.5067 14.0854 22.8348 15.4024 22.8348C19.7378 22.8348 23.25 19.3348 23.25 15.0145C23.1951 12.9911 22.4268 11.0223 20.9451 9.54578ZM19.189 17.8583C19.0244 18.2958 18.2561 18.7333 17.872 18.788C17.5427 18.8427 17.1037 18.8427 16.6646 18.7333C16.3902 18.6239 16.0061 18.5145 15.5671 18.2958C13.5915 17.4755 12.3293 15.5067 12.2195 15.3427C12.1098 15.2333 11.3963 14.3036 11.3963 13.3192C11.3963 12.3348 11.8902 11.8973 12.0549 11.6786C12.2195 11.4598 12.439 11.4598 12.6037 11.4598C12.7134 11.4598 12.878 11.4598 12.9878 11.4598C13.0976 11.4598 13.2622 11.4052 13.4268 11.788C13.5915 12.1708 13.9756 13.1552 14.0305 13.2098C14.0854 13.3192 14.0854 13.4286 14.0305 13.538C13.9756 13.6473 13.9207 13.7567 13.811 13.8661C13.7012 13.9755 13.5915 14.1395 13.5366 14.1942C13.4268 14.3036 13.3171 14.413 13.4268 14.577C13.5366 14.7958 13.9207 15.3973 14.5244 15.9442C15.2927 16.6005 15.8963 16.8192 16.1159 16.9286C16.3354 17.038 16.4451 16.9833 16.5549 16.8739C16.6646 16.7645 17.0488 16.327 17.1585 16.1083C17.2683 15.8895 17.4329 15.9442 17.5976 15.9989C17.7622 16.0536 18.75 16.5458 18.9146 16.6552C19.1341 16.7645 19.2439 16.8192 19.2988 16.8739C19.3537 17.038 19.3537 17.4208 19.189 17.8583Z" fill="white"/>
</svg>
