<svg width="30" height="30" viewBox="0 0 30 30" fill="none" xmlns="http://www.w3.org/2000/svg">
<path d="M22.7121 14.1031H10.6768L15.9348 8.8451C16.3551 8.42489 16.3551 7.73531 15.9348 7.3151C15.8352 7.21521 15.7168 7.13597 15.5864 7.0819C15.4561 7.02783 15.3163 7 15.1752 7C15.0341 7 14.8944 7.02783 14.764 7.0819C14.6337 7.13597 14.5153 7.21521 14.4156 7.3151L7.3151 14.4156C7.21521 14.5153 7.13597 14.6337 7.0819 14.764C7.02783 14.8944 7 15.0341 7 15.1752C7 15.3163 7.02783 15.4561 7.0819 15.5864C7.13597 15.7168 7.21521 15.8352 7.3151 15.9348L14.4156 23.0354C14.5154 23.1351 14.6338 23.2142 14.7641 23.2682C14.8945 23.3222 15.0342 23.35 15.1752 23.35C15.3163 23.35 15.456 23.3222 15.5863 23.2682C15.7167 23.2142 15.8351 23.1351 15.9348 23.0354C16.0346 22.9356 16.1137 22.8172 16.1677 22.6868C16.2217 22.5565 16.2495 22.4168 16.2495 22.2757C16.2495 22.1347 16.2217 21.995 16.1677 21.8646C16.1137 21.7343 16.0346 21.6159 15.9348 21.5161L10.6768 16.2581H22.7121C23.3047 16.2581 23.7896 15.7732 23.7896 15.1806C23.7896 14.588 23.3047 14.1031 22.7121 14.1031Z" fill="white"/>
</svg>
