<svg width="65" height="22" viewBox="0 0 65 22" fill="none" xmlns="http://www.w3.org/2000/svg">
<g clip-path="url(#clip0_677_1494)">
<path fill-rule="evenodd" clip-rule="evenodd" d="M3.74761 21.55V0.0359802H0V21.55H3.74761Z" fill="white"/>
<path fill-rule="evenodd" clip-rule="evenodd" d="M7.41504 6.37634V21.5435H19.0096L7.41504 6.37634Z" fill="white"/>
<path fill-rule="evenodd" clip-rule="evenodd" d="M7.41504 0L19.0096 14.6911V0H7.41504Z" fill="white"/>
</g>
<path d="M24.0098 21.1967V20.2257L29.3358 14.6208L30.153 15.0438H24.0482V13.9863H30.6529V14.9477L25.3172 20.5718L24.6154 20.1391H30.6818V21.1967H24.0098Z" fill="white"/>
<path d="M32.8017 19.5431V18.4952H37.8394V19.5431H32.8017ZM36.1473 13.9863L39.6083 21.1967H38.2527L35.109 14.467H35.5993L32.4556 21.1967H31.1001L34.561 13.9863H36.1473Z" fill="white"/>
<path d="M40.4871 21.1967V13.9863H41.7562V20.1295L41.3716 19.8892L46.1978 13.9863H47.5725L41.6216 21.1967H40.4871ZM43.9193 17.5722L44.8134 16.6974L47.6783 21.1967H46.2266L43.9193 17.5722Z" fill="white"/>
<path d="M51.8037 21.3313C50.9833 21.3313 50.2623 21.1742 49.6406 20.8602C49.0189 20.5461 48.535 20.1103 48.1889 19.5527C47.8428 18.9887 47.6697 18.3349 47.6697 17.5915C47.6697 16.848 47.8428 16.1975 48.1889 15.6399C48.535 15.0758 49.0189 14.6368 49.6406 14.3228C50.2623 14.0087 50.9833 13.8517 51.8037 13.8517C52.6241 13.8517 53.3451 14.0087 53.9668 14.3228C54.5885 14.6368 55.0724 15.0758 55.4185 15.6399C55.7646 16.1975 55.9376 16.848 55.9376 17.5915C55.9376 18.3349 55.7646 18.9887 55.4185 19.5527C55.0724 20.1103 54.5885 20.5461 53.9668 20.8602C53.3451 21.1742 52.6241 21.3313 51.8037 21.3313ZM51.8037 20.1968C52.3869 20.1968 52.8901 20.0911 53.3131 19.8796C53.7361 19.6681 54.0629 19.3668 54.2937 18.9759C54.5308 18.5849 54.6494 18.1234 54.6494 17.5915C54.6494 17.0595 54.5308 16.598 54.2937 16.2071C54.0629 15.8161 53.7361 15.5149 53.3131 15.3034C52.8901 15.0919 52.3869 14.9861 51.8037 14.9861C51.2269 14.9861 50.7237 15.0919 50.2943 15.3034C49.8713 15.5149 49.5412 15.8161 49.3041 16.2071C49.0734 16.598 48.958 17.0595 48.958 17.5915C48.958 18.1234 49.0734 18.5849 49.3041 18.9759C49.5412 19.3668 49.8713 19.6681 50.2943 19.8796C50.7237 20.0911 51.2269 20.1968 51.8037 20.1968Z" fill="white"/>
<path d="M63.8522 20.4276L63.333 20.4852V13.9863H64.5636V21.1967H62.9485L57.8916 14.6977L58.4011 14.64V21.1967H57.1705V13.9863H58.8241L63.8522 20.4276Z" fill="white"/>
<path d="M24.0098 0.203658H25.93V11.1139H24.0098V0.203658Z" fill="white"/>
<path d="M38.4812 9.95017L37.6957 10.0374V0.203658H39.5577V11.1139H37.1138L29.4621 1.28014L30.2331 1.19286V11.1139H28.371V0.203658H30.8731L38.4812 9.95017Z" fill="white"/>
<path d="M42.9257 4.97508H50.7665V6.66254H42.9257V4.97508ZM50.9993 0.203658V1.89111H42.8675L43.9149 0.800087V11.1139H41.9947V0.203658H50.9993Z" fill="white"/>
<path d="M58.3084 11.3176C57.067 11.3176 55.976 11.08 55.0353 10.6048C54.0946 10.1296 53.3624 9.47011 52.8387 8.62639C52.315 7.77296 52.0531 6.78376 52.0531 5.65879C52.0531 4.53382 52.315 3.54947 52.8387 2.70575C53.3624 1.85232 54.0946 1.18801 55.0353 0.712805C55.976 0.237602 57.067 0 58.3084 0C59.5497 0 60.6407 0.237602 61.5814 0.712805C62.5222 1.18801 63.2543 1.85232 63.778 2.70575C64.3017 3.54947 64.5636 4.53382 64.5636 5.65879C64.5636 6.78376 64.3017 7.77296 63.778 8.62639C63.2543 9.47011 62.5222 10.1296 61.5814 10.6048C60.6407 11.08 59.5497 11.3176 58.3084 11.3176ZM58.3084 9.60104C59.1909 9.60104 59.9522 9.44102 60.5922 9.12099C61.2323 8.80095 61.7269 8.34514 62.076 7.75356C62.4349 7.16199 62.6143 6.46373 62.6143 5.65879C62.6143 4.85386 62.4349 4.1556 62.076 3.56402C61.7269 2.97244 61.2323 2.51664 60.5922 2.1966C59.9522 1.87657 59.1909 1.71655 58.3084 1.71655C57.4355 1.71655 56.6742 1.87657 56.0245 2.1966C55.3844 2.51664 54.885 2.97244 54.5261 3.56402C54.177 4.1556 54.0024 4.85386 54.0024 5.65879C54.0024 6.46373 54.177 7.16199 54.5261 7.75356C54.885 8.34514 55.3844 8.80095 56.0245 9.12099C56.6742 9.44102 57.4355 9.60104 58.3084 9.60104Z" fill="white"/>
<defs>
<clipPath id="clip0_677_1494">
<rect width="19.0096" height="21.55" fill="white"/>
</clipPath>
</defs>
</svg>
