<svg width="38" height="38" viewBox="0 0 38 38" fill="none" xmlns="http://www.w3.org/2000/svg">
<path d="M26.9612 10.8572H11.0374C9.94259 10.8572 9.05683 11.7529 9.05683 12.8477L9.04688 24.7905C9.04688 25.8853 9.94259 26.781 11.0374 26.781H26.9612C28.0559 26.781 28.9516 25.8853 28.9516 24.7905V12.8477C28.9516 11.7529 28.0559 10.8572 26.9612 10.8572ZM26.5631 15.0869L19.5267 19.4859C19.2083 19.6849 18.7903 19.6849 18.4718 19.4859L11.4354 15.0869C11.3357 15.0309 11.2483 14.9552 11.1786 14.8645C11.1089 14.7737 11.0583 14.6697 11.03 14.5588C11.0016 14.448 10.9961 14.3325 11.0136 14.2194C11.0312 14.1063 11.0715 13.998 11.1322 13.9009C11.1928 13.8039 11.2726 13.7201 11.3665 13.6548C11.4605 13.5894 11.5667 13.5438 11.6788 13.5207C11.7909 13.4976 11.9065 13.4975 12.0186 13.5204C12.1307 13.5433 12.2371 13.5886 12.3312 13.6538L18.9993 17.8238L25.6674 13.6538C25.7614 13.5886 25.8678 13.5433 25.9799 13.5204C26.092 13.4975 26.2076 13.4976 26.3197 13.5207C26.4318 13.5438 26.5381 13.5894 26.632 13.6548C26.726 13.7201 26.8057 13.8039 26.8663 13.9009C26.927 13.998 26.9673 14.1063 26.9849 14.2194C27.0025 14.3325 26.9969 14.448 26.9686 14.5588C26.9402 14.6697 26.8896 14.7737 26.82 14.8645C26.7503 14.9552 26.6629 15.0309 26.5631 15.0869Z" fill="#164B60"/>
</svg>
