<svg width="12" height="10" viewBox="0 0 12 10" fill="none" xmlns="http://www.w3.org/2000/svg">
<path d="M8.2733 1.01617C10.1995 2.39756 10.1995 4.70312 8.2733 6.08452C7.10466 6.92278 5.54317 7.21671 4.12675 7.06004C3.92866 7.03803 3.73389 7.00726 3.5429 6.96798C2.91527 7.68222 2.26516 7.88883 1.38596 8.16289C1.17865 8.22749 1.01204 7.9887 1.13818 7.81617C1.45838 7.35989 1.7774 6.84562 1.72652 6.26486C1.20894 5.94607 0.784131 5.54966 0.485937 5.09977C-0.484614 3.63554 0.0810082 2.00068 1.45365 1.01617C3.34316 -0.338722 6.38379 -0.338722 8.2733 1.01617ZM8.01155 1.38157C6.27848 0.138625 3.44847 0.138625 1.7154 1.38157C0.543919 2.22172 0.0246827 3.592 0.8601 4.85222C1.1377 5.27111 1.54405 5.63983 2.04317 5.93258C2.10187 5.96477 2.14565 6.02275 2.15677 6.09399C2.23984 6.61796 2.09784 7.0882 1.84627 7.5407C2.43982 7.33267 2.85492 7.04726 3.27358 6.5905C3.33748 6.52092 3.40729 6.47904 3.50787 6.50175C3.72253 6.55074 3.9457 6.58837 4.17597 6.61393C5.48045 6.7583 6.93498 6.49134 8.01155 5.71935C9.68641 4.51805 9.68641 2.58287 8.01155 1.38157Z" fill="#A2A2A2"/>
<path fill-rule="evenodd" clip-rule="evenodd" d="M2.71491 2.84204C3.10612 2.84204 3.42324 3.15917 3.42324 3.55037C3.42324 3.94181 3.10612 4.25894 2.71491 4.25894C2.32347 4.25894 2.00635 3.94181 2.00635 3.55037C2.00635 3.15917 2.32347 2.84204 2.71491 2.84204Z" fill="#A2A2A2"/>
<path fill-rule="evenodd" clip-rule="evenodd" d="M4.86384 2.84204C5.25504 2.84204 5.57217 3.15917 5.57217 3.55037C5.57217 3.94181 5.25504 4.25894 4.86384 4.25894C4.47264 4.25894 4.15527 3.94181 4.15527 3.55037C4.15527 3.15917 4.47264 2.84204 4.86384 2.84204Z" fill="#A2A2A2"/>
<path fill-rule="evenodd" clip-rule="evenodd" d="M7.01204 2.84204C7.40324 2.84204 7.72061 3.15917 7.72061 3.55037C7.72061 3.94181 7.40324 4.25894 7.01204 4.25894C6.62084 4.25894 6.30371 3.94181 6.30371 3.55037C6.30371 3.15917 6.62084 2.84204 7.01204 2.84204Z" fill="#A2A2A2"/>
<path fill-rule="evenodd" clip-rule="evenodd" d="M5.52734 7.66991C6.19946 8.04976 7.04766 8.27624 7.96946 8.27624C8.3867 8.27624 8.78855 8.22986 9.16602 8.14371C9.6713 8.75525 10.1167 8.91807 10.9881 9.18999C10.6534 8.71336 10.3709 8.22347 10.4634 7.64009C11.3516 7.12086 11.9189 6.32993 11.9189 5.44387C11.9189 4.50503 11.2818 3.67293 10.3011 3.15771C10.3167 3.28622 10.3247 3.4171 10.3247 3.55034C10.3247 4.80181 9.61686 5.8585 8.62241 6.5718C7.72617 7.21458 6.6283 7.5691 5.52734 7.66991Z" fill="#A2A2A2"/>
</svg>
