<svg width="34" height="33" viewBox="0 0 34 33" fill="none" xmlns="http://www.w3.org/2000/svg">
<rect x="0.515137" y="0.5" width="32.6154" height="32" fill="#164B60"/>
<path fill-rule="evenodd" clip-rule="evenodd" d="M10.3905 16.3701C13.9785 14.8069 16.371 13.7763 17.5681 13.2784C20.9861 11.8568 21.6963 11.6098 22.1592 11.6016C22.2611 11.5999 22.4887 11.6251 22.6362 11.7447C22.7607 11.8458 22.7949 11.9823 22.8113 12.078C22.8277 12.1738 22.8481 12.3921 22.8319 12.5626C22.6467 14.5087 21.8452 19.2315 21.4375 21.4112C21.265 22.3335 20.9253 22.6427 20.5964 22.673C19.8817 22.7388 19.3389 22.2006 18.6467 21.7469C17.5634 21.0368 16.9515 20.5948 15.9 19.9019C14.6848 19.1011 15.4726 18.661 16.1651 17.9417C16.3463 17.7535 19.4954 14.8891 19.5564 14.6293C19.564 14.5968 19.5711 14.4756 19.4991 14.4117C19.4272 14.3477 19.321 14.3696 19.2443 14.387C19.1357 14.4116 17.4052 15.5554 14.0528 17.8183C13.5617 18.1556 13.1167 18.32 12.7181 18.3113C12.2787 18.3018 11.4333 18.0629 10.8049 17.8586C10.0342 17.608 9.42157 17.4756 9.47492 17.0501C9.5027 16.8284 9.80791 16.6018 10.3905 16.3701Z" fill="white"/>
</svg>
