<svg width="33" height="34" viewBox="0 0 33 34" fill="none" xmlns="http://www.w3.org/2000/svg">
<path d="M0 33.5L2.32054 25.0304C0.885881 22.5444 0.133274 19.7291 0.141114 16.851C0.141114 7.83246 7.47903 0.5 16.4868 0.5C20.8613 0.5 24.9693 2.20176 28.0503 5.29159C31.1391 8.38142 32.8403 12.4907 32.8325 16.8588C32.8325 25.8774 25.4945 33.2099 16.4789 33.2099H16.4711C13.7351 33.2099 11.0461 32.5197 8.65498 31.2179L0 33.5ZM9.07048 28.2614L9.56438 28.5594C11.6497 29.7985 14.0408 30.4494 16.4789 30.4572H16.4868C23.9737 30.4572 30.0729 24.3638 30.0729 16.8667C30.0729 13.2357 28.6618 9.82438 26.0982 7.25214C23.5346 4.6799 20.1165 3.2683 16.4868 3.2683C8.99992 3.26046 2.90067 9.35385 2.90067 16.851C2.90067 19.4154 3.61408 21.9171 4.97818 24.0815L5.2996 24.5991L3.92767 29.6103L9.07048 28.2614Z" fill="white"/>
<path d="M0.572266 32.9275L2.81441 24.7481C1.42679 22.3563 0.6977 19.635 0.6977 16.8589C0.70554 8.15402 7.78474 1.07251 16.4868 1.07251C20.7123 1.07251 24.6714 2.71937 27.6504 5.69941C30.6295 8.67945 32.268 12.6476 32.268 16.8667C32.268 25.5716 25.1809 32.6531 16.4868 32.6531H16.4789C13.837 32.6531 11.242 31.9865 8.93717 30.7317L0.572266 32.9275Z" fill="url(#paint0_linear_160_1039)"/>
<path d="M0 33.5L2.32054 25.0304C0.885881 22.5444 0.133274 19.7291 0.141114 16.851C0.141114 7.83246 7.47903 0.5 16.4868 0.5C20.8613 0.5 24.9693 2.20176 28.0503 5.29159C31.1391 8.38142 32.8403 12.4907 32.8325 16.8588C32.8325 25.8774 25.4945 33.2099 16.4789 33.2099H16.4711C13.7351 33.2099 11.0461 32.5197 8.65498 31.2179L0 33.5ZM9.07048 28.2614L9.56438 28.5594C11.6497 29.7985 14.0408 30.4494 16.4789 30.4572H16.4868C23.9737 30.4572 30.0729 24.3638 30.0729 16.8667C30.0729 13.2357 28.6618 9.82438 26.0982 7.25214C23.5346 4.6799 20.1165 3.2683 16.4868 3.2683C8.99992 3.26046 2.90067 9.35385 2.90067 16.851C2.90067 19.4154 3.61408 21.9171 4.97818 24.0815L5.2996 24.5991L3.92767 29.6103L9.07048 28.2614Z" fill="url(#paint1_linear_160_1039)"/>
<path fill-rule="evenodd" clip-rule="evenodd" d="M12.4023 10.0127C12.0966 9.33044 11.7751 9.31476 11.4851 9.30691C11.2499 9.29907 10.9755 9.29907 10.7011 9.29907C10.4267 9.29907 9.98769 9.40102 9.61139 9.80882C9.23508 10.2166 8.18457 11.2047 8.18457 13.2202C8.18457 15.2278 9.65058 17.1726 9.85442 17.4471C10.0582 17.7216 12.6845 21.9799 16.8317 23.6189C20.2811 24.9835 20.9867 24.709 21.7315 24.6384C22.4763 24.5678 24.1461 23.6503 24.491 22.6936C24.8281 21.7368 24.8281 20.9212 24.7262 20.7487C24.6243 20.5762 24.3499 20.4742 23.9423 20.2703C23.5346 20.0664 21.5277 19.0783 21.1514 18.9371C20.775 18.8038 20.5007 18.7332 20.2341 19.141C19.9597 19.5488 19.1758 20.4664 18.9406 20.7409C18.7054 21.0153 18.4624 21.0467 18.0547 20.8428C17.647 20.6389 16.33 20.2076 14.7699 18.8117C13.5547 17.7294 12.7316 16.3884 12.4964 15.9806C12.2612 15.5728 12.4729 15.3533 12.6767 15.1494C12.857 14.969 13.0844 14.671 13.2882 14.4357C13.492 14.2005 13.5626 14.0279 13.6958 13.7534C13.8291 13.479 13.7664 13.2437 13.6645 13.0398C13.5626 12.8437 12.7629 10.8205 12.4023 10.0127Z" fill="white"/>
<defs>
<linearGradient id="paint0_linear_160_1039" x1="16.4193" y1="32.926" x2="16.4193" y2="1.0714" gradientUnits="userSpaceOnUse">
<stop stop-color="#20B038"/>
<stop offset="1" stop-color="#60D66A"/>
</linearGradient>
<linearGradient id="paint1_linear_160_1039" x1="16.4194" y1="33.4969" x2="16.4194" y2="0.5" gradientUnits="userSpaceOnUse">
<stop stop-color="#F9F9F9"/>
<stop offset="1" stop-color="white"/>
</linearGradient>
</defs>
</svg>
