<svg width="33" height="33" viewBox="0 0 33 33" fill="none" xmlns="http://www.w3.org/2000/svg">
<rect x="0.161133" y="0.5" width="32.6154" height="32" fill="#164B60"/>
<g clip-path="url(#clip0_160_1008)">
<path d="M23.8591 12.9498C23.6887 12.3172 23.1899 11.8184 22.5573 11.6481C21.4016 11.3318 16.7786 11.3318 16.7786 11.3318C16.7786 11.3318 12.1557 11.3318 10.9999 11.6359C10.3795 11.8062 9.86851 12.3172 9.69819 12.9498C9.39404 14.1056 9.39404 16.5022 9.39404 16.5022C9.39404 16.5022 9.39404 18.911 9.69819 20.0546C9.86851 20.6872 10.3673 21.186 10.9999 21.3563C12.1678 21.6726 16.7786 21.6726 16.7786 21.6726C16.7786 21.6726 21.4016 21.6726 22.5573 21.3685C23.1899 21.1982 23.6887 20.6994 23.8591 20.0668C24.1632 18.911 24.1632 16.5144 24.1632 16.5144C24.1632 16.5144 24.1754 14.1056 23.8591 12.9498Z" fill="white"/>
<path d="M15.3066 18.7164L19.151 16.5022L15.3066 14.2881V18.7164Z" fill="#164B60"/>
</g>
<defs>
<clipPath id="clip0_160_1008">
<rect width="14.7692" height="14.7692" fill="white" transform="translate(9.39404 9.11646)"/>
</clipPath>
</defs>
</svg>
