<svg width="15" height="12" viewBox="0 0 15 12" fill="none" xmlns="http://www.w3.org/2000/svg">
<path fill-rule="evenodd" clip-rule="evenodd" d="M2.81191 1.68714L3.18201 0.576811C3.29683 0.232345 3.6192 0 3.9823 0H10.3584C10.7215 0 11.0439 0.232345 11.1587 0.576811L11.5288 1.68714H12.6536C13.5854 1.68714 14.3407 2.4425 14.3407 3.37429V10.1229C14.3407 11.0546 13.5854 11.81 12.6536 11.81H1.68714C0.75536 11.81 0 11.0546 0 10.1229V3.37429C0 2.4425 0.75536 1.68714 1.68714 1.68714H2.81191ZM7.17036 9.91197C9.1504 9.91197 10.7555 8.30683 10.7555 6.32679C10.7555 4.34675 9.1504 2.74161 7.17036 2.74161C5.19032 2.74161 3.58518 4.34675 3.58518 6.32679C3.58518 8.30683 5.19032 9.91197 7.17036 9.91197ZM7.17036 8.64661C5.88916 8.64661 4.85054 7.60799 4.85054 6.32679C4.85054 5.04558 5.88916 4.00696 7.17036 4.00696C8.45156 4.00696 9.49018 5.04558 9.49018 6.32679C9.49018 7.60799 8.45156 8.64661 7.17036 8.64661ZM11.81 4.21786V5.06143H12.6536V4.21786H11.81Z" fill="white"/>
</svg>
