<svg width="26" height="25" viewBox="0 0 26 25" fill="none" xmlns="http://www.w3.org/2000/svg">
<path d="M25.0427 23.0979L17.2745 15.3297C18.6246 13.6159 19.3034 11.5458 19.3034 9.47406C19.3034 7.05031 18.3768 4.62516 16.5274 2.77607C14.6786 0.927333 12.2549 9.85178e-08 9.83182 9.85178e-08C7.40493 -0.000348392 4.97561 0.923848 3.12373 2.77607C1.27325 4.62621 0.347656 7.05275 0.347656 9.47789C0.347656 11.9027 1.27325 14.3292 3.12373 16.1797C4.97282 18.0291 7.39796 18.9558 9.82206 18.9558C11.867 18.9558 13.9099 18.2923 15.6112 16.9764L15.6774 16.9265L15.9649 17.214L23.4456 24.6947C23.6488 24.8979 23.9168 25.0003 24.183 25C24.4496 25.0003 24.7176 24.8979 24.9208 24.6944L25.042 24.5731C25.2455 24.3699 25.348 24.1016 25.3477 23.8353C25.3484 23.5691 25.2459 23.3011 25.0427 23.0979ZM15.2822 14.9342C13.776 16.4407 11.8001 17.1949 9.82555 17.1945C7.851 17.1949 5.87541 16.4407 4.36889 14.9342C2.86236 13.428 2.10858 11.4521 2.10858 9.47754C2.10858 7.503 2.86236 5.5274 4.36889 4.02088C5.87541 2.51436 7.85135 1.76057 9.82555 1.76057C11.8001 1.76057 13.7757 2.51436 15.2822 4.02088C16.7887 5.5274 17.5429 7.50335 17.5425 9.47754C17.5432 11.4521 16.7891 13.428 15.2822 14.9342Z" fill="#ABABAB"/>
</svg>
