<svg width="30" height="31" viewBox="0 0 30 31" fill="none" xmlns="http://www.w3.org/2000/svg">
<circle cx="15" cy="15.5" r="15" fill="#2F89CE"/>
<path d="M7.01205 15.7807L10.4606 17.0666L11.805 21.392C11.8634 21.6842 12.2141 21.7427 12.4479 21.5673L14.3768 19.9892C14.5521 19.8138 14.8444 19.8138 15.0782 19.9892L18.5267 22.5025C18.7605 22.6779 19.1112 22.561 19.1697 22.2687L21.7415 9.99417C21.8 9.70192 21.5077 9.40968 21.2155 9.52658L7.01205 15.0209C6.66135 15.1378 6.66135 15.6638 7.01205 15.7807ZM11.6296 16.4237L18.4098 12.2737C18.5267 12.2153 18.6436 12.3906 18.5267 12.4491L12.974 17.6512C12.7986 17.8265 12.6233 18.0603 12.6233 18.3526L12.4479 19.7554C12.4479 19.9307 12.1557 19.9892 12.0972 19.7554L11.3958 17.1835C11.2205 16.8913 11.3374 16.5406 11.6296 16.4237Z" fill="white"/>
</svg>
