<svg width="30" height="31" viewBox="0 0 30 31" fill="none" xmlns="http://www.w3.org/2000/svg">
<circle cx="15" cy="15.5" r="15" fill="#55ACE3"/>
<path d="M22.951 11.6748C22.426 11.8998 21.826 12.0498 21.226 12.1248C21.826 11.7498 22.351 11.1498 22.576 10.4748C21.976 10.8498 21.376 11.0748 20.626 11.2248C20.101 10.6248 19.276 10.2498 18.451 10.2498C16.801 10.2498 15.451 11.5998 15.451 13.2498C15.451 13.4748 15.451 13.6998 15.526 13.9248C13.051 13.7748 10.801 12.5748 9.30097 10.7748C9.07597 11.2248 8.92597 11.7498 8.92597 12.2748C8.92597 13.3248 9.45097 14.2248 10.276 14.7498C9.75097 14.7498 9.30097 14.5998 8.92597 14.3748C8.92597 15.7998 9.97597 17.0748 11.326 17.2998C11.101 17.3748 10.801 17.3748 10.501 17.3748C10.276 17.3748 10.126 17.3748 9.90097 17.2998C10.276 18.4998 11.401 19.3998 12.751 19.3998C11.701 20.2248 10.426 20.6748 9.00098 20.6748C8.77598 20.6748 8.55098 20.6748 8.25098 20.5998C9.60098 21.4248 11.176 21.9498 12.901 21.9498C18.451 21.9498 21.451 17.3748 21.451 13.3998V13.0248C22.051 12.7998 22.576 12.2748 22.951 11.6748Z" fill="white"/>
</svg>
