<svg width="30" height="31" viewBox="0 0 30 31" fill="none" xmlns="http://www.w3.org/2000/svg">
<circle cx="15" cy="15.5" r="15" fill="#7294C7"/>
<path d="M22.3541 19.3367C22.3541 19.2745 22.2919 19.2745 22.2919 19.2122C22.0428 18.7141 21.4824 18.0914 20.7352 17.4065C20.3616 17.0951 20.1748 16.8461 20.0503 16.7215C19.8635 16.4725 19.8635 16.2857 19.9257 16.0366C19.988 15.8498 20.2371 15.5384 20.6729 14.978C20.922 14.6667 21.0465 14.4799 21.2333 14.2931C22.1673 13.0478 22.6032 12.2383 22.4787 11.8647L22.4164 11.8024C22.3541 11.7402 22.2919 11.6779 22.1673 11.6779C22.0428 11.6156 21.856 11.6156 21.6692 11.6779H19.3031C19.2408 11.6779 19.2408 11.6779 19.1162 11.6779C19.054 11.6779 18.9917 11.6779 18.9917 11.6779H18.9295H18.8672L18.8049 11.7401C18.7426 11.8024 18.7426 11.8024 18.7426 11.8647C18.4936 12.5496 18.1822 13.11 17.8709 13.7327C17.6841 14.044 17.4973 14.3554 17.3105 14.6044C17.1237 14.8535 16.9992 15.0403 16.8746 15.1648C16.7501 15.2894 16.6256 15.3516 16.5633 15.4762C16.501 15.5384 16.3765 15.6007 16.3765 15.5384C16.3142 15.5384 16.2519 15.5384 16.2519 15.4762C16.1897 15.4139 16.1274 15.3516 16.0652 15.2894C16.0029 15.2271 16.0029 15.1026 15.9406 14.978C15.9406 14.8535 15.9406 14.729 15.9406 14.6667C15.9406 14.6044 15.9406 14.4176 15.9406 14.2931C15.9406 14.1063 15.9406 13.9818 15.9406 13.9195C15.9406 13.7327 15.9406 13.4836 15.9406 13.2346C15.9406 12.9855 15.9406 12.7987 15.9406 12.6742C15.9406 12.5496 15.9406 12.3628 15.9406 12.2383C15.9406 12.0515 15.9406 11.9269 15.9406 11.8647C15.9406 11.8024 15.8784 11.6779 15.8784 11.6156C15.8161 11.5533 15.7538 11.4911 15.6915 11.4288C15.6293 11.3665 15.5048 11.3665 15.4425 11.3043C15.1311 11.242 14.7576 11.1797 14.3217 11.1797C13.3254 11.1797 12.6405 11.242 12.3914 11.3666C12.2669 11.4288 12.1423 11.4911 12.0801 11.6156C11.9555 11.7402 11.9555 11.8024 12.0178 11.8024C12.3291 11.8647 12.5782 11.9892 12.7027 12.176L12.765 12.3006C12.8273 12.3628 12.8273 12.4874 12.8895 12.6742C12.9518 12.861 12.9518 13.0478 12.9518 13.2968C12.9518 13.6704 12.9518 14.044 12.9518 14.2931C12.9518 14.6044 12.8895 14.7912 12.8895 14.978C12.8895 15.1648 12.8273 15.2894 12.765 15.3516C12.7027 15.4762 12.7027 15.5384 12.6405 15.5384C12.6405 15.5384 12.6405 15.6007 12.5782 15.6007C12.5159 15.6007 12.4537 15.663 12.3291 15.663C12.2669 15.663 12.1423 15.6007 12.0801 15.5384C11.9555 15.4762 11.831 15.3516 11.7687 15.2271C11.6442 15.1026 11.5197 14.9158 11.3951 14.6667C11.2706 14.4176 11.0838 14.1686 10.9592 13.795L10.8347 13.5459C10.7724 13.4214 10.6479 13.1723 10.5234 12.861C10.3988 12.5496 10.2743 12.3006 10.1498 11.9892C10.0875 11.8647 10.0252 11.8024 9.96298 11.7401H9.90071C9.90071 11.7401 9.83843 11.6779 9.77617 11.6779C9.7139 11.6779 9.65164 11.6156 9.58937 11.6156H7.34775C7.09868 11.6156 6.97415 11.6779 6.91188 11.7401L6.84961 11.8024C6.84961 11.8024 6.84961 11.8647 6.84961 11.927C6.84961 11.9892 6.84961 12.0515 6.91188 12.176C7.22322 12.9232 7.59682 13.6704 7.97042 14.4176C8.34402 15.1026 8.71763 15.7253 8.9667 16.1611C9.27804 16.597 9.5271 17.0329 9.83844 17.4065C10.1498 17.7801 10.3366 18.0291 10.3988 18.1537C10.5234 18.2782 10.5856 18.3405 10.6479 18.4027L10.8347 18.5895C10.9592 18.7141 11.146 18.9009 11.3951 19.0877C11.6442 19.2745 11.9555 19.4613 12.2669 19.6481C12.5782 19.8349 12.9518 19.9594 13.3254 20.084C13.7613 20.2085 14.1349 20.2708 14.5085 20.2085H15.4425C15.6293 20.2085 15.7538 20.1462 15.8784 20.0217L15.9406 19.9594C15.9406 19.8971 16.0029 19.8971 16.0029 19.8349C16.0029 19.7726 16.0029 19.7103 16.0029 19.5858C16.0029 19.3367 16.0029 19.1499 16.0652 18.9631C16.1274 18.7763 16.1274 18.6518 16.1897 18.5273C16.252 18.4027 16.3142 18.3405 16.3765 18.2782C16.4388 18.2159 16.501 18.1537 16.501 18.1537H16.5633C16.6878 18.0914 16.8746 18.1537 16.9992 18.2782C17.186 18.4027 17.3728 18.5895 17.4973 18.7763C17.6218 18.9631 17.8086 19.1499 18.0577 19.399C18.3068 19.6481 18.4936 19.8349 18.6181 19.8972L18.8049 20.0217C18.9294 20.084 19.054 20.1462 19.2408 20.2085C19.4276 20.2708 19.5521 20.2707 19.6766 20.2707L21.7937 20.2085C21.9805 20.2085 22.1673 20.1462 22.2919 20.084C22.4164 20.0217 22.4787 19.9594 22.4787 19.8349C22.4787 19.7726 22.4787 19.6481 22.4787 19.5858C22.3541 19.4613 22.3541 19.399 22.3541 19.3367Z" fill="white"/>
</svg>
